<?xml version="1.0" encoding="utf-8" ?><svg xmlns="http://www.w3.org/2000/svg" xmlns:xlink="http://www.w3.org/1999/xlink" width="1080" height="540" viewBox="0 0 1080 540"><path fill="#050305" transform="scale(0.527344 0.527344)" d="M0 0L2048 0L2048 269.013L2048 350.103L2048 484.835L2048 613.571L2048 670.898L2048 674.901L2048 771.662L2048 775.523L2048 869.744L2048 874.347L2048 958.256L2048 963.014L2048 1024L0 1024L0 971.79L0 967.152L0 834.194L0 829.535L0 744.348L0 740.244L0 687.079L0 683.436L0 640.591L0 510.126L0 416.462L0 291.886L0 221.738L0 0Z"/><path fill="#6CC8FB" transform="scale(0.527344 0.527344)" d="M0 0L2048 0L2048 269.013C1999.14 269.434 1967.66 229.374 1927.53 211.086C1910.88 203.694 1892.94 199.671 1874.73 199.248C1838.1 198.034 1809.97 210.571 1779.99 231.585C1769.81 238.723 1759.97 248.935 1749.17 255.634C1720.77 273.034 1689.21 284.653 1656.31 289.825C1617.99 295.923 1561.74 296.715 1523.92 287.056C1501.8 281.403 1468.36 260.265 1445.97 250.085C1383.84 221.823 1330.92 216.842 1267.57 243.551C1251.62 250.276 1230.72 260.123 1217.22 271.229C1161.64 218.655 1106.4 165.725 1051.5 112.444L985.441 165.899C961.151 185.909 935.468 207.964 910.875 227.253C892.209 242.956 873.464 258.564 854.638 274.076C850.22 277.729 831.991 293.152 828.337 295.365C826.596 295.142 817.88 295.567 815.998 295.72C801.223 296.921 796.37 296.278 782.603 292.791C730.859 280.228 711.041 224.713 655.784 220.185C605.259 216.044 583.548 241.272 549.373 271.994C530.285 289.153 493.942 301.835 468.454 302.955C450.444 303.746 407.498 299.825 393.386 286.823C349.732 287.198 305.966 285.111 261.643 285.559C233.954 285.802 206.268 286.368 178.592 287.255C157.98 287.897 108.883 291.38 91.0295 286.511C82.1342 286.276 72.263 283 63.4282 281.278C42.856 277.267 18.3363 282.284 0 291.886L0 221.738L0 0Z"/><path fill="#A3DAFA" transform="scale(0.527344 0.527344)" d="M372.368 225.831C376.415 224.725 408.161 231.827 415.629 232.265C433.815 233.334 454.335 233.369 472.188 229.168C498.857 223.114 523.801 211.078 545.136 193.971C555.873 185.487 567.683 175.307 579.175 168.37C619.68 144.114 670.076 143.415 711.237 166.54C722.78 173.113 733.567 181.98 743.873 190.115C782.555 220.648 829.606 235.649 878.865 231.187C888.161 230.345 897.527 228.149 906.8 226.498L906.507 227.017C908.132 227.233 909.231 227.477 910.875 227.253C892.209 242.956 873.464 258.564 854.638 274.076C850.22 277.729 831.991 293.152 828.337 295.365C826.596 295.142 817.88 295.567 815.998 295.72C801.223 296.921 796.37 296.278 782.603 292.791C730.859 280.228 711.041 224.713 655.784 220.185C605.259 216.044 583.548 241.272 549.373 271.994C530.285 289.153 493.942 301.835 468.454 302.955C450.444 303.746 407.498 299.825 393.386 286.823C411.529 284.064 428.156 268.978 412.414 251.459C403.35 241.373 388.903 241.895 376.328 241.72C375.203 236.443 373.726 231.067 372.368 225.831Z"/><path fill="#050305" transform="scale(0.527344 0.527344)" d="M170.805 193.168C188.19 158.985 223.111 116.956 267.37 138.447C288.312 148.616 302.737 172.384 314.982 191.454C346.19 183.911 362.793 195.75 372.368 225.831C373.726 231.067 375.203 236.443 376.328 241.72C388.903 241.895 403.35 241.373 412.414 251.459C428.156 268.978 411.529 284.064 393.386 286.823C349.732 287.198 305.966 285.111 261.643 285.559C233.954 285.802 206.268 286.368 178.592 287.255C157.98 287.897 108.883 291.38 91.0295 286.511C64.0384 271.278 75.1782 240.594 102.575 235.325C105.879 234.689 110.95 234.876 114.404 234.885C115.509 230.83 116.975 226.427 118.226 222.375C130.683 198.172 144.253 192.233 170.805 193.168Z"/><path fill="#FDFEFE" transform="scale(0.527344 0.527344)" d="M237.101 136.196C277.642 133.159 293.768 166.506 313.712 194.714C315.717 194.236 317.726 193.775 319.739 193.33C356.455 185.261 367.718 215.874 373.739 245.045C385.03 244.786 400.11 243.717 408.916 252.062C421.661 264.173 412.148 281.319 395.966 282.707C377.324 284.306 357.722 283.082 338.955 282.677C311.934 282.133 284.907 281.972 257.882 282.194C225.551 282.805 193.224 283.617 160.902 284.63C143.124 285.147 124.777 286.59 107.016 285.785C98.701 285.408 90.5401 284.138 84.764 277.564C80.6424 272.874 78.8102 266.604 79.3584 260.422C81.5273 235.964 111.239 240.559 116.581 234.84C123.999 226.896 122.58 214.49 135.512 204.128C146.199 195.565 159.3 195.295 172.211 196.755C186.318 168.891 204.934 142.904 237.101 136.196Z"/><path fill="#A3DAFA" transform="scale(0.527344 0.527344)" d="M7.10543e-15 221.738C29.6548 206.545 64.1226 203.726 95.8519 213.899C102.831 216.129 111.436 219.566 118.226 222.375C116.975 226.427 115.509 230.83 114.404 234.885C110.95 234.876 105.879 234.689 102.575 235.325C75.1782 240.594 64.0384 271.278 91.0295 286.511C82.1342 286.276 72.263 283 63.4282 281.278C42.856 277.267 18.3363 282.284 0 291.886L0 221.738L7.10543e-15 221.738Z"/><path fill="#050305" transform="scale(0.527344 0.527344)" d="M1486.66 84.1799C1512.84 82.0573 1525.36 94.4038 1536.56 116.179C1557.77 118.899 1566.19 129.533 1574.03 147.966C1579.35 148.41 1587.31 148.529 1591.24 152.468C1603.47 164.744 1594.95 176.187 1580.01 178.1C1571.27 179.218 1561.94 178.633 1553.17 178.61L1505.74 178.599C1484.48 178.425 1463.22 178.36 1441.96 178.404C1435.01 178.389 1414.3 179.109 1409.05 177.6C1383.07 170.141 1391.78 145.12 1417.64 142.757C1425.5 125.307 1433.22 120.732 1451.06 116.197C1458.67 98.8835 1467.95 89.0236 1486.66 84.1799Z"/><path fill="#FDFEFE" transform="scale(0.527344 0.527344)" d="M1491.2 86.3678C1514.78 86.6113 1524.41 99.4148 1534.85 118.192C1557.62 122.279 1564.42 130.773 1572.75 151.411C1596.94 149.639 1604.16 172.361 1579.58 175.407C1570.66 176.512 1558.48 175.954 1549.14 175.881L1501.25 175.722C1482.08 175.484 1462.9 175.386 1443.73 175.428C1433.65 175.433 1420.04 176.275 1410.57 174.981C1388.81 169.744 1392.26 149.461 1415.18 146.194C1422.83 145.104 1423.7 123.923 1452.42 119.188C1460.66 100.782 1470.22 89.607 1491.2 86.3678Z"/><path fill="#EDA83D" transform="scale(0.527344 0.527344)" d="M1360.43 768.652C1383.36 791.61 1406.44 817.247 1428.6 841.138C1459.54 840.423 1499.27 836.07 1530.27 833.119C1587.81 827.71 1645.3 821.839 1702.75 815.508C1778.42 807.759 1853.98 799.012 1929.42 789.271C1964.96 784.632 2013.23 779.094 2048 771.662L2048 775.523L2048 869.744L2048 874.347L2048 958.256L2048 963.014L2048 1024L0 1024L0 971.79L0 967.152L0 834.194L0 829.535C6.47478 831.56 22.2102 834.389 29.4767 835.876L91.282 848.259C153.357 860.903 220.688 874.779 281.97 889.326C299.908 870.57 317.023 851.063 334.985 832.336C354.29 853.21 373.844 873.85 393.644 894.254C409.809 891.893 426.827 890.712 442.632 887.554C455.341 873.459 467.928 859.255 480.39 844.941C492.073 855.29 504.377 868.041 515.552 879.174C546.045 873.329 578.144 870.576 608.9 865.905C735.131 846.731 857.78 848.54 985.058 856.17C1023.29 858.516 1061.49 861.256 1099.66 864.39C1121.73 866.289 1147.28 869.255 1169.19 869.697C1176.55 869.845 1199.4 866.122 1207.66 865.094C1234.57 861.744 1261.49 857.475 1288.52 854.539C1311.62 828.272 1338.55 795.975 1360.43 768.652Z"/><path fill="#050305" transform="scale(0.527344 0.527344)" d="M1360.43 768.652C1383.36 791.61 1406.44 817.247 1428.6 841.138C1459.54 840.423 1499.27 836.07 1530.27 833.119C1587.81 827.71 1645.3 821.839 1702.75 815.508C1778.42 807.759 1853.98 799.012 1929.42 789.271C1964.96 784.632 2013.23 779.094 2048 771.662L2048 775.523L2048 869.744L2048 874.347L2048 958.256L2048 963.014C1947.81 955.326 1847.7 946.675 1747.67 937.062C1644.68 926.991 1541.93 915.35 1438.65 908.4C1386.75 904.908 1334.47 904.973 1282.41 902.22C1193.63 897.528 1103.6 892.754 1014.71 894.007C970.371 894.632 921.148 900.152 876.889 904.691C799.402 912.651 722.039 921.776 644.827 932.065C621.582 934.974 598.189 938.42 575.069 941.329C564.606 942.646 541.616 942.495 529.994 942.888L440.911 946.136C447.346 953.467 453.701 960.868 459.974 968.338C466.768 968.17 480.529 967.118 486.009 970.193C482.181 974.257 433.033 972.79 424.124 972.901C383.79 973.793 343.447 974.249 303.102 974.269C288.416 974.339 189.569 976.24 183.583 972.695C186.179 969.043 202.883 969.704 207.784 969.641L219.299 957.727C148.825 965.329 71.4465 965.636 0 971.79L0 967.152L0 834.194L0 829.535C6.47478 831.56 22.2102 834.389 29.4767 835.876L91.282 848.259C153.357 860.903 220.688 874.779 281.97 889.326C299.908 870.57 317.023 851.063 334.985 832.336C354.29 853.21 373.844 873.85 393.644 894.254C409.809 891.893 426.827 890.712 442.632 887.554C455.341 873.459 467.928 859.255 480.39 844.941C492.073 855.29 504.377 868.041 515.552 879.174C546.045 873.329 578.144 870.576 608.9 865.905C735.131 846.731 857.78 848.54 985.058 856.17C1023.29 858.516 1061.49 861.256 1099.66 864.39C1121.73 866.289 1147.28 869.255 1169.19 869.697C1176.55 869.845 1199.4 866.122 1207.66 865.094C1234.57 861.744 1261.49 857.475 1288.52 854.539C1311.62 828.272 1338.55 795.975 1360.43 768.652Z"/><path fill="#EDCA72" transform="scale(0.527344 0.527344)" d="M1432.71 846.174C1473.1 841.614 1517.44 838.704 1558.41 834.687C1664.9 824.28 1771.27 812.733 1877.51 800.049C1911.99 795.853 1946.42 791.324 1980.81 786.461C2003.31 783.291 2025.81 780.472 2048 775.523L2048 869.744C1904.54 887.936 1756.73 890.681 1612.25 886.349C1565.75 884.955 1508.1 883.164 1462.03 878.822L1432.71 846.174Z"/><path fill="#BE7B27" transform="scale(0.527344 0.527344)" d="M1856.98 844.482C1860.07 842.589 1863.96 842.546 1867.09 844.372C1870.23 846.197 1872.11 849.595 1871.99 853.22C1871.87 856.845 1869.77 860.112 1866.52 861.727C1861.79 864.076 1856.05 862.288 1853.5 857.669C1850.94 853.05 1852.48 847.238 1856.98 844.482Z"/><path fill="#9C6B24" transform="scale(0.527344 0.527344)" d="M1628.07 847.437C1630.98 846.294 1634.27 847.685 1635.47 850.567C1636.67 853.448 1635.34 856.761 1632.49 858.021C1630.59 858.858 1628.38 858.603 1626.72 857.354C1625.07 856.105 1624.21 854.057 1624.49 852C1624.77 849.942 1626.14 848.197 1628.07 847.437Z"/><path fill="#BE7B27" transform="scale(0.527344 0.527344)" d="M2048 874.347L2048 958.256C2039.35 957.923 2030.48 957.001 2021.82 956.388C1844.79 943.85 1668.52 922.999 1491.78 907.823L1497.81 906.419L1491.42 905.063C1496.58 904.796 1504.19 905.08 1508.27 901.947L1507.56 902.761L1507.93 901.589C1500.71 899.744 1488.03 900.827 1480.44 901.239L1465.66 883.845C1659.65 898.761 1854.6 895.582 2048 874.347Z"/><path fill="#9C6B24" transform="scale(0.527344 0.527344)" d="M1787.98 908.242C1790.54 907.822 1792.96 909.564 1793.38 912.13C1793.79 914.696 1792.04 917.11 1789.48 917.518C1786.92 917.924 1784.51 916.184 1784.1 913.627C1783.69 911.07 1785.42 908.661 1787.98 908.242Z"/><path fill="#BE7B27" transform="scale(0.527344 0.527344)" d="M0 834.194C34.5568 841.694 68.928 847.969 103.377 855.286C161.833 868.068 220.364 880.506 278.966 892.599C260.739 912.732 242.399 932.764 223.949 952.694C211 954.61 194.427 955.258 181.016 956.131L111.346 960.469L40.5435 964.647C28.1916 965.427 12.1423 966.956 0 967.152L0 834.194Z"/><path fill="#9C6B24" transform="scale(0.527344 0.527344)" d="M1463.19 905.379C1472.52 905.13 1482.11 904.736 1491.42 905.063L1497.81 906.419L1491.78 907.823C1486.64 908.219 1468.26 906.457 1463.19 905.379Z"/><path fill="#EDCA72" transform="scale(0.527344 0.527344)" d="M782.727 854.463C813.42 853.354 847.552 854.19 878.162 854.911C1007.54 857.958 1136.14 874.142 1265.3 881.114C1261.21 885.834 1257.15 890.711 1253.11 895.485C1158.18 891.38 1058.98 885.777 964.247 892.76C946.167 893.406 922.666 895.93 904.471 897.654C866.584 901.228 828.75 905.347 790.981 910.009C718.226 918.373 645.561 927.496 572.996 937.375C555.67 920.844 535.951 899.809 518.591 882.438C540.842 880.742 577.333 874.32 600.527 871.224C662.762 862.915 719.572 856.582 782.727 854.463Z"/><path fill="#9C6B24" transform="scale(0.527344 0.527344)" d="M642.508 885.526C644.032 884.082 646.407 884.04 647.98 885.431C649.552 886.822 649.802 889.184 648.554 890.873C647.644 892.105 646.116 892.719 644.606 892.458C643.096 892.197 641.862 891.106 641.419 889.639C640.975 888.172 641.396 886.581 642.508 885.526Z"/><path fill="#93BD93" transform="scale(0.527344 0.527344)" d="M336.952 840.683C351.459 854.724 370.935 876.455 385.072 891.806C406.158 914.7 433.3 942.77 452.712 966.743L452.137 967.994L448.25 968.208C410.833 967.668 368.681 968.945 330.929 969.302C331.586 938.84 334.133 907.862 334.801 877.328C335.05 865.894 335.517 851.814 336.952 840.683Z"/><path fill="#3C8464" transform="scale(0.527344 0.527344)" d="M330.824 842.726L331.72 843.639C332.446 847.41 330.489 875.012 330.232 880.42C328.753 910.048 327.62 939.692 326.833 969.346C289.966 969.931 253.094 970.145 216.222 969.987L215.451 968.655C218.878 963.457 246.073 934.966 251.933 928.647L330.824 842.726Z"/><path fill="#3C8464" transform="scale(0.527344 0.527344)" d="M1358.69 777.686C1359.53 780.493 1361.74 809.103 1362.1 813.25C1364.52 842.558 1367.11 871.851 1369.88 901.128C1339.05 900.771 1305.86 897.688 1274.56 896.881C1269.58 896.435 1263.67 896.239 1258.61 895.955C1293.24 857.619 1325.18 816.962 1358.69 777.686Z"/><path fill="#93BD93" transform="scale(0.527344 0.527344)" d="M1361.99 777.568C1362.6 777.944 1363.19 778.343 1363.77 778.763C1374.02 786.245 1471.85 895.415 1472.71 900.97C1443.93 903.611 1401.85 902.764 1373.2 901.941L1361.99 777.568Z"/><path fill="#3C8464" transform="scale(0.527344 0.527344)" d="M481.998 852.634C484.476 854.493 487.104 857.041 489.349 859.189C515.824 884.513 540.884 911.431 566.994 937.108C562.295 937.255 557.35 937.597 552.631 937.845C525.079 939.165 496.985 939.166 469.594 940.976L481.998 852.634Z"/><path fill="#3C8464" transform="scale(0.527344 0.527344)" d="M477.356 854.88C478.257 862.824 467.288 928.333 465.719 940.988C456.679 940.873 446.07 941.659 436.925 942.12L427.687 931.953L417.826 920.863C437.162 901.087 458.547 875.842 477.356 854.88Z"/><path fill="#EDA83D" transform="scale(0.527344 0.527344)" d="M1278.63 860.372L1281.68 860.086L1282.29 861.28C1279.88 865.83 1273.11 873.055 1269.43 877.241C1246.88 875.621 1224.32 874.149 1201.75 872.825C1199.66 872.789 1195.89 871.97 1193.69 871.566C1201.7 869.814 1217.29 868.395 1225.96 867.338C1243.53 865.155 1261.09 862.832 1278.63 860.372Z"/><path fill="#EDCA72" transform="scale(0.527344 0.527344)" d="M436.965 892.475C436.498 895.134 417.791 914.357 414.702 917.631L405.896 907.688L396.11 897.288C409.749 895.868 423.369 894.264 436.965 892.475Z"/><path fill="#9C6B24" transform="scale(0.527344 0.527344)" d="M1437.85 963.63C1439.69 962.942 1441.75 963.353 1443.19 964.69C1444.62 966.027 1445.18 968.06 1444.62 969.94C1444.06 971.819 1442.49 973.222 1440.56 973.561C1437.93 974.022 1435.38 972.405 1434.68 969.829C1433.97 967.253 1435.35 964.566 1437.85 963.63Z"/><path fill="#9C6B24" transform="scale(0.527344 0.527344)" d="M944.898 955.189C946.18 954.435 947.773 954.447 949.043 955.221C950.313 955.994 951.055 957.403 950.974 958.888C950.893 960.373 950.001 961.693 948.654 962.323C946.702 963.237 944.377 962.455 943.373 960.548C942.369 958.641 943.04 956.282 944.898 955.189Z"/><path fill="#EDCA72" transform="scale(0.527344 0.527344)" d="M1908.5 650.108C1923.48 653.741 1943.67 656.82 1959.24 659.612C1988.77 665.038 2018.36 670.134 2048 674.901L2048 771.662C2013.23 779.094 1964.96 784.632 1929.42 789.271C1853.98 799.012 1778.42 807.759 1702.75 815.508C1645.3 821.839 1587.81 827.71 1530.27 833.119C1499.27 836.07 1459.54 840.423 1428.6 841.138C1406.44 817.247 1383.36 791.61 1360.43 768.652C1338.55 795.975 1311.62 828.272 1288.52 854.539C1261.49 857.475 1234.57 861.744 1207.66 865.094C1199.4 866.122 1176.55 869.845 1169.19 869.697C1147.28 869.255 1121.73 866.289 1099.66 864.39C1061.49 861.256 1023.29 858.516 985.058 856.17C857.78 848.54 735.131 846.731 608.9 865.905C578.144 870.576 546.045 873.329 515.552 879.174C504.377 868.041 492.073 855.29 480.39 844.941C467.928 859.255 455.341 873.459 442.632 887.554C426.827 890.712 409.809 891.893 393.644 894.254C373.844 873.85 354.29 853.21 334.985 832.336C317.023 851.063 299.908 870.57 281.97 889.326C220.688 874.779 153.357 860.903 91.282 848.259L29.4767 835.876C22.2102 834.389 6.47478 831.56 0 829.535L0 744.348C24.1236 743.624 53.8387 740.451 78.2084 738.33C121.104 734.822 163.947 730.71 206.726 725.994L280.25 717.571C293.685 715.969 311.618 714.135 324.552 711.607C332.966 714.973 348.512 719.394 357.456 722.164L412.724 739.433L475.272 759.246C485.372 762.462 507.803 770.286 517.417 770.892C529.744 771.668 548.387 770.199 561.46 770.04C601.718 769.55 641.972 768.8 682.219 767.791L754.821 766.244C760.258 766.133 782.875 765.385 786.295 766.151L786.256 769.458C796.374 781.339 1041.21 783.694 1057.65 769.703C1057.41 767.228 1053.69 763.394 1051.83 761.061L1521.38 751.994L1639.51 750C1663.12 749.693 1686.84 749.464 1710.45 748.926C1713.4 748.859 1713.57 749.021 1715.53 747.377C1714.96 744.277 1662.14 695.499 1655.7 689.31C1675.68 685.689 1707.61 686.358 1728.63 684.382C1732.37 684.03 1737.15 684.631 1740.05 682.461C1740.35 682.359 1743.64 679.92 1743.64 679.92C1786.61 677.452 1829.92 677.935 1872.91 676.401C1891.75 675.729 1914.37 676.477 1932.83 674.242C1924.7 666.412 1916.53 658.086 1908.5 650.108Z"/><path fill="#BE7B27" transform="scale(0.527344 0.527344)" d="M176.126 773.558C181.387 772.204 186.762 775.315 188.21 780.55C189.659 785.785 186.646 791.216 181.438 792.758C177.984 793.781 174.247 792.86 171.664 790.349C169.082 787.838 168.056 784.129 168.981 780.648C169.906 777.167 172.638 774.456 176.126 773.558Z"/><path fill="#BE7B27" transform="scale(0.527344 0.527344)" d="M1829.48 709.525C1830.72 708.761 1832.27 708.721 1833.54 709.419C1834.81 710.117 1835.61 711.445 1835.63 712.896C1835.65 714.348 1834.89 715.698 1833.64 716.43C1831.73 717.544 1829.29 716.92 1828.15 715.029C1827.01 713.138 1827.61 710.685 1829.48 709.525Z"/><path fill="#9FD9FA" transform="scale(0.527344 0.527344)" d="M393.386 286.823C407.498 299.825 450.444 303.746 468.454 302.955C493.942 301.835 530.285 289.153 549.373 271.994C583.548 241.272 605.259 216.044 655.784 220.185C711.041 224.713 730.859 280.228 782.603 292.791C796.37 296.278 801.223 296.921 815.998 295.72C817.88 295.567 826.596 295.142 828.337 295.365C794.17 325.579 754.473 355.309 719.011 384.744C710.711 381.257 702.859 373.166 694.439 368.955C668.735 356.101 638.718 352.985 611.524 363.07C593.443 369.786 576.353 383.604 563.932 398.105C560.392 402.239 554.626 411.798 551.419 414.81L470.236 336.9C454.897 349.6 437.95 365.149 422.617 378.428C415.963 377.19 402.48 367.891 395.085 364.637C363.864 350.797 325.531 353.772 296.598 371.831C275.734 384.854 260.661 405.232 242.765 421.824C219.253 443.621 178.481 452.624 147.578 445.407C103.11 435.021 91.4846 396.81 40.4055 402.244C26.7266 403.709 13.5383 408.169 1.77784 415.307C1.17631 415.678 0.583535 416.064 -3.55271e-15 416.462L0 291.886C18.3363 282.284 42.856 277.267 63.4282 281.278C72.263 283 82.1342 286.276 91.0295 286.511C108.883 291.38 157.98 287.897 178.592 287.255C206.268 286.368 233.954 285.802 261.643 285.559C305.966 285.111 349.732 287.198 393.386 286.823Z"/><path fill="#9FD9FA" transform="scale(0.527344 0.527344)" d="M1217.22 271.229C1230.72 260.123 1251.62 250.276 1267.57 243.551C1330.92 216.842 1383.84 221.823 1445.97 250.085C1468.36 260.265 1501.8 281.403 1523.92 287.056C1561.74 296.715 1617.99 295.923 1656.31 289.825C1689.21 284.653 1720.77 273.034 1749.17 255.634C1759.97 248.935 1769.81 238.723 1779.99 231.585C1809.97 210.571 1838.1 198.034 1874.73 199.248C1892.94 199.671 1910.88 203.694 1927.53 211.086C1967.66 229.374 1999.14 269.434 2048 269.013L2048 350.103C1951.85 353.193 1956.85 268.36 1867.57 269.95C1821.62 270.768 1798.45 299.381 1766.35 326.875C1748.41 341.764 1719.21 357.124 1696.46 364.437C1681.66 369.04 1666.43 372.119 1651.01 373.628C1643.39 374.4 1615.18 372.789 1612.23 375.302C1609.68 373.545 1599.76 364.355 1597.11 361.979C1584.91 350.945 1572.78 339.849 1560.7 328.691C1510.8 370.982 1461.19 413.619 1411.88 456.599C1346.68 397.446 1281.53 331.844 1217.22 271.229Z"/><path fill="#A3DAFA" transform="scale(0.527344 0.527344)" d="M1612.23 375.302C1615.18 372.789 1643.39 374.4 1651.01 373.628C1666.43 372.119 1681.66 369.04 1696.46 364.437C1719.21 357.124 1748.41 341.764 1766.35 326.875C1798.45 299.381 1821.62 270.768 1867.57 269.95C1956.85 268.36 1951.85 353.193 2048 350.103L2048 484.835C2019.28 488.688 1983.97 481.176 1961.39 462.663C1952.32 455.226 1944.56 447.002 1935.82 439.718C1915.14 422.411 1888.19 414.505 1861.44 417.903C1796.02 426.303 1791.62 468.592 1740.71 494.323C1724.29 480.099 1703.41 459.334 1687.13 444.126L1612.23 375.302Z"/><path fill="#A3DAFA" transform="scale(0.527344 0.527344)" d="M-3.55271e-15 416.462C0.583535 416.064 1.17631 415.678 1.77784 415.307C13.5383 408.169 26.7266 403.709 40.4055 402.244C91.4846 396.81 103.11 435.021 147.578 445.407C178.481 452.624 219.253 443.621 242.765 421.824C260.661 405.232 275.734 384.854 296.598 371.831C325.531 353.772 363.864 350.797 395.085 364.637C402.48 367.891 415.963 377.19 422.617 378.428C385.793 410.79 348.717 442.864 311.394 474.65C305.133 479.999 282.67 500.783 276.692 504.028C264.795 505.601 265.651 506.909 256.989 514.259C220.713 545.04 158.716 559.442 118.979 527.127C94.1235 506.914 69.1337 494.715 35.9842 499.07C23.4445 500.666 11.2725 504.406 -7.10543e-15 510.126L0 416.462L-3.55271e-15 416.462Z"/><path fill="#C4E6F9" transform="scale(0.527344 0.527344)" d="M1740.71 494.323C1791.62 468.592 1796.02 426.303 1861.44 417.903C1888.19 414.505 1915.14 422.411 1935.82 439.718C1944.56 447.002 1952.32 455.226 1961.39 462.663C1983.97 481.176 2019.28 488.688 2048 484.835L2048 613.571C2007.56 617.949 1981.11 613.276 1951.17 585.731C1927.57 564.018 1896.51 550.397 1864.38 554.705C1854.29 556.058 1828.97 561.046 1822.18 569.346C1794.43 544.994 1767.26 519.979 1740.71 494.323Z"/><path fill="#9FD9FA" transform="scale(0.527344 0.527344)" d="M-7.10543e-15 510.126C11.2725 504.406 23.4445 500.666 35.9842 499.07C69.1337 494.715 94.1235 506.914 118.979 527.127C158.716 559.442 220.713 545.04 256.989 514.259C265.651 506.909 264.795 505.601 276.692 504.028C247.381 530.7 208.164 561.355 177.322 587.463L133.031 624.779C129.47 627.742 116.738 638.646 113.562 640.496L113.094 640.069C110.639 640.695 107.039 642 104.774 640.866C83.7949 630.355 64.3417 622.093 40.1398 625.716C25.8862 627.85 12.3634 631.142 0 640.591L0 510.126L-7.10543e-15 510.126Z"/><path fill="#EDA83D" transform="scale(0.527344 0.527344)" d="M276.515 593.736C338.356 592.574 401.27 592.2 462.928 590.234C416.107 628.834 367.301 670.393 319.752 707.643C286.271 712.187 252.734 716.31 219.15 720.014C208.945 721.171 179.347 725.084 170.791 725.071L171.03 724.269C177.735 722.096 261.923 608.611 276.515 593.736Z"/><path fill="#9FD9FA" transform="scale(0.527344 0.527344)" d="M1822.18 569.346C1828.97 561.046 1854.29 556.058 1864.38 554.705C1896.51 550.397 1927.57 564.018 1951.17 585.731C1981.11 613.276 2007.56 617.949 2048 613.571L2048 670.898C2026.38 666.743 1911.72 648.975 1902.97 643.628C1891.99 636.917 1882.15 625.612 1872.77 616.758C1856.01 600.841 1839.15 585.037 1822.18 569.346Z"/><path fill="#A3DAFA" transform="scale(0.527344 0.527344)" d="M551.419 414.81C554.626 411.798 560.392 402.239 563.932 398.105C576.353 383.604 593.443 369.786 611.524 363.07C638.718 352.985 668.735 356.101 694.439 368.955C702.859 373.166 710.711 381.257 719.011 384.744C684.248 412.896 646.585 444.072 611.076 471.135C592.824 455.007 568.446 432.156 551.419 414.81Z"/><path fill="#EDCA72" transform="scale(0.527344 0.527344)" d="M0 687.079L60.1207 686.72C56.7991 689.396 53.1143 692.179 50.232 695.283L136.184 715.698C141.599 716.971 167.532 722.565 171.03 724.269L170.791 725.071C153.024 728.398 113.55 731.107 94.5885 732.607C66.0529 734.865 28.1428 739.569 0 740.244L0 687.079Z"/><path fill="#C4E6F9" transform="scale(0.527344 0.527344)" d="M0 640.591C12.3634 631.142 25.8862 627.85 40.1398 625.716C64.3417 622.093 83.7949 630.355 104.774 640.866C107.039 642 110.639 640.695 113.094 640.069L113.562 640.496C98.8538 654.734 79.9795 668.898 64.3932 682.777C43.5718 682.923 20.651 682.603 0 683.436L0 640.591Z"/><path fill="#EDA83D" transform="scale(0.527344 0.527344)" d="M1475.14 527.485C1476.68 527.191 1478.26 527.853 1479.39 528.922C1506.94 555.059 1534.47 581.227 1562.01 607.382L1707.87 744.859L1263.86 752.766L1125.72 755.1C1100.5 755.487 1073.03 755.302 1048.05 756.579C1012.18 717.428 978.438 675.09 942.983 635.455C934.308 625.757 926.494 615.937 917.345 606.541C893.133 637.171 865.035 670.422 840.011 700.641L792.044 760.41C781.829 761.225 769.904 761.217 759.523 761.365C679.854 762.497 599.688 766.026 520.049 766.07C540.971 740.095 566.769 711.259 588.678 685.586L714.74 537.953L1475.14 527.485Z"/><path fill="#EDA83D" transform="scale(0.527344 0.527344)" d="M1270.43 343.523L1284.2 343.088L1472.46 522.843L915.75 530.83C851.045 531.224 783.678 531.219 719.133 532.717C727.789 521.586 739.097 508.96 748.294 497.977L798.421 437.747C822.859 408.685 849.564 375.205 874.775 347.313C913.68 346.437 955.161 347.424 994.505 347.096C1086.49 346.413 1178.47 345.222 1270.43 343.523Z"/><path fill="#EDA83D" transform="scale(0.527344 0.527344)" d="M1052.2 121.629C1058.17 125.927 1071.58 139.154 1077.17 144.597C1089.78 157.005 1102.5 169.304 1115.33 181.491L1279.57 338.567C1223.5 341.06 1158.33 340.642 1101.75 341.262C1027.32 342.226 952.889 342.709 878.456 342.709C913.736 299.155 948.695 255.34 983.328 211.269C1006.58 181.937 1030.92 152.38 1052.2 121.629Z"/><path fill="#BE7B27" transform="scale(0.527344 0.527344)" d="M567.939 512.766C570.629 512.499 594.687 517.147 599.061 517.881L708.711 536.56C703.208 544.213 692.912 555.646 686.455 563.294L639.89 617.951L513.904 765.844C502.942 762.658 492.564 759.161 481.756 755.521L377.505 722.989C362.37 718.276 343.472 711.529 328.404 708.06C407.674 642.26 487.522 577.16 567.939 512.766Z"/><path fill="#EDA83D" transform="scale(0.527344 0.527344)" d="M1649.54 459.448C1664.71 458.644 1682.53 458.833 1698.03 458.515C1734.88 492.222 1770.69 527.305 1807.81 560.964C1742.98 563.065 1677.4 563.298 1612.28 565.128C1583.8 566.22 1555.3 566.932 1526.8 567.264C1503.59 546.605 1479.33 522.465 1456.46 500.999C1464.41 488.651 1472.22 476.215 1479.89 463.694C1533.84 460.497 1594.84 460.971 1649.54 459.448Z"/><path fill="#EDA83D" transform="scale(0.527344 0.527344)" d="M1785.49 564.548L1810.74 563.625C1847.29 596.436 1891.37 637.095 1925.4 671.935L1739.56 676.565C1724.33 661.972 1692.94 622.539 1678.06 604.801C1672.07 598.128 1665.38 589.479 1659.62 582.428C1643.05 603.005 1627.85 626.688 1610.53 646.758C1583.37 621.656 1556.51 596.229 1529.97 570.481C1615.13 567.914 1700.3 565.936 1785.49 564.548Z"/><path fill="#BE7B27" transform="scale(0.527344 0.527344)" d="M779.497 342.912C809.633 344.718 837.685 347.105 868.012 347.224C863.532 352.088 859.554 357.254 855.255 362.254C807.149 418.209 761.233 476.639 712.755 532.188C699.568 529.263 681.877 526.754 668.25 524.404C637.061 519.69 604.147 512.354 573.139 508.419C642.233 453.635 711.02 398.465 779.497 342.912Z"/><path fill="#EDA83D" transform="scale(0.527344 0.527344)" d="M595.997 482.466C595.518 484.073 477.922 578.573 466.852 587.056C405.972 586.737 341.631 589.118 280.547 590.081C280.719 586.54 352.041 496.192 360.994 485.188C438.056 484.604 519.153 484.606 595.997 482.466Z"/><path fill="#EDA83D" transform="scale(0.527344 0.527344)" d="M470.43 342.575C475.259 345.429 506.395 376.464 512.277 382.122L607.81 473.289L600.561 479.851C567.623 479.838 534.686 480.045 501.75 480.472C456.689 481.862 409.099 481.617 363.866 482.105L444.487 378.043C453.365 366.405 461.61 353.734 470.43 342.575Z"/><path fill="#BE7B27" transform="scale(0.527344 0.527344)" d="M188.17 582.648C194.621 582.765 212.556 585.917 220.167 587.032C237.468 589.584 254.831 591.69 272.24 593.348C239.106 636 204.342 677.497 171.755 720.794C164.325 718.478 154.019 716.423 146.238 714.65C116.48 707.045 87.0455 701.104 57.1631 693.091C67.8603 682.48 90.2407 664.647 102.487 654.366L188.17 582.648Z"/><path fill="#EDA83D" transform="scale(0.527344 0.527344)" d="M1560.77 333.624C1577.84 346.69 1596.68 365.834 1612.99 380.487C1640.27 404.986 1668.09 429.868 1694.61 455.157C1667.71 456.276 1639.77 456.616 1612.8 457.267C1569.35 459.03 1525.46 458.885 1481.82 460.795C1507.7 420.988 1535.65 374.3 1560.77 333.624Z"/><path fill="#EDCA72" transform="scale(0.527344 0.527344)" d="M919.394 616.58C928.847 624.421 944.79 645.837 953.715 655.587C986.84 691.773 1017.86 731.343 1050.57 767.678C1041.72 769.323 1034.72 770.267 1025.76 771.23C991.977 775.82 931.016 774.377 895.953 774.126C903.69 722.628 910.663 667.625 919.394 616.58Z"/><path fill="#BE7B27" transform="scale(0.527344 0.527344)" d="M1040.39 128.049C1040.4 128.125 1040.42 128.2 1040.42 128.277C1040.4 135.979 886.32 325.109 871.753 342.195C844.349 341.621 816.96 340.455 789.605 338.698C788.425 338.396 787.932 338.035 786.857 337.47C787.982 335.325 819.536 310.082 824.577 305.89L1040.39 128.049Z"/><path fill="#EDA83D" transform="scale(0.527344 0.527344)" d="M912.73 619.879C914.914 624.154 893.249 756.356 890.786 774.147C859.939 773.672 833.177 772.447 802.758 768.771C799.386 768.283 796.333 768.413 793.998 766.524C796.104 762.546 824.223 728.092 828.401 722.938C856.226 688.353 884.336 653.999 912.73 619.879Z"/><path fill="#BE7B27" transform="scale(0.527344 0.527344)" d="M310.202 479.745C325.458 480.996 340.777 484.089 356.647 485.337C329.782 520.725 302.404 555.719 274.52 590.31L243.766 586.876C226.455 584.673 209.161 582.345 191.884 579.892C227.864 546.827 272.567 512.471 310.202 479.745Z"/><path fill="#EDCA72" transform="scale(0.527344 0.527344)" d="M1661.08 589.641C1665.62 593.617 1680.13 611.683 1684.48 616.858C1702.38 638.047 1720.17 659.332 1737.84 680.712L1724.77 681.415C1700.51 682.856 1676.25 684.447 1652.01 686.186C1655.83 654.725 1656.7 621.333 1661.08 589.641Z"/><path fill="#BE7B27" transform="scale(0.527344 0.527344)" d="M1553.89 337.976C1554.02 340.598 1485.69 448.932 1478.48 460.241C1458.63 458.929 1438.77 457.922 1418.9 457.22L1416.71 456.643C1418.09 452.685 1539.1 350.613 1553.89 337.976Z"/><path fill="#BE7B27" transform="scale(0.527344 0.527344)" d="M461.804 348.137C460.942 352.575 369.118 470.148 358.58 483.119C345.776 481.587 332.993 479.88 320.235 478C317.847 477.95 317.761 477.912 315.55 476.94C316.386 473.608 352.692 443.271 359.295 437.571C393.646 407.967 427.816 378.155 461.804 348.137Z"/><path fill="#EDA83D" transform="scale(0.527344 0.527344)" d="M1657.64 589.751C1658.32 593.329 1649.88 674.555 1648.59 682.27L1629.7 664.66C1624.79 660.489 1617.73 653.203 1612.91 648.538C1627.8 629.889 1642.97 608.894 1657.64 589.751Z"/><path fill="#BE7B27" transform="scale(0.527344 0.527344)" d="M1414.85 459.977C1435.12 461.354 1456.27 461.996 1476.69 463.183C1472.56 470.598 1467.4 478.5 1462.88 485.761L1454.33 499.036C1441.08 486.108 1427.92 473.088 1414.85 459.977Z"/></svg>