<?xml version="1.0" encoding="utf-8"?>
<!-- Generator: Adobe Illustrator 24.0.0, SVG Export Plug-In . SVG Version: 6.00 Build 0)  -->
<svg version="1.1" id="Layer_1" xmlns="http://www.w3.org/2000/svg" xmlns:xlink="http://www.w3.org/1999/xlink" x="0px" y="0px"
	 viewBox="0 0 500 500" style="enable-background:new 0 0 500 500;" xml:space="preserve">
<style type="text/css">
	.st0{fill:#F14744;}
	.st1{fill:#FFFFFF;}
	.st2{fill:#C2CB3E;}
	.st3{fill:#563069;}
</style>
<g>
	<g>
		<g>
			<path d="M417.96,116.24c-10.8-4.35-22.59-0.32-26.35,9c-2.11,5.25-1.23,11.05,1.88,15.9c-2.06,7.24-10.22,15.3-35.35,17.49
				l-13.53,1.11l24.18,40.37c0,0,16.08-40.95,32.63-51.57c0.94,0.53,1.91,1.03,2.95,1.45c10.8,4.35,22.59,0.32,26.35-9
				C434.46,131.67,428.75,120.59,417.96,116.24z"/>
			<path d="M462.01,179.14c-8.48,0-15.54,7.77-17.13,18.07c-39.65,27.17-60.57,7.56-60.57,7.56l14.97,46.25
				c21.1-30.18,38.95-36.21,48.17-37c3.13,6.06,8.48,10.05,14.56,10.05c9.65,0,17.47-10.06,17.47-22.46S471.66,179.14,462.01,179.14
				z"/>
			<path d="M476.82,264.33c-8.81,0-16.28,7.34-18.93,17.51c-24.4,5.99-60.6-15.51-60.6-15.51s-21.63,70.21,4.33,42.93
				c18.54-19.49,43.35-15.89,56.02-12.24c2.39,10.71,10.06,18.57,19.18,18.57c11.03,0,19.97-11.47,19.97-25.62
				C496.79,275.8,487.85,264.33,476.82,264.33z"/>
			<path d="M461.64,346.35c-7.81-3.99-17.83-0.68-24.74,7.4c-7.74-3.24-20.98-12.25-43.71-33.85
				c-53.68-51.02-23.51,30.17-23.51,30.17s33.19-5.46,60.74,15.84c-3.09,10.76,0.02,21.48,8.14,25.63
				c9.61,4.91,22.56-1.23,28.94-13.7C473.87,365.35,471.25,351.26,461.64,346.35z"/>
			<path d="M423.4,412.17c-4.45-7.71-15.87-9.57-26.32-4.64c-17.63-14.93-21.42-53.47-21.42-53.47s-100.71,34.38-42.81,37.27
				c37.94,1.89,50.63,14.54,54.88,23.04c-5.85,6.41-7.79,14.63-4.21,20.83c4.78,8.27,17.58,9.82,28.59,3.46
				C423.12,432.3,428.18,420.44,423.4,412.17z"/>
			<path d="M305.58,437.53c-0.43-9.01-0.91-32.93,5.53-40.43c7.99-9.32-39.93,4.66-39.93,4.66s16.72,21.1,23.68,36.51
				c-6.88,1.74-11.7,5.78-11.7,10.49c0,6.29,8.6,11.4,19.22,11.4c10.61,0,19.22-5.1,19.22-11.4
				C321.59,443.11,314.66,438.44,305.58,437.53z"/>
			<path d="M200.64,394.65c0,0-22.18-62.56-28.17-22.63c-2.86,19.04-8.28,29.6-13.18,35.44c-5.34-3.52-11.44-4.49-16.51-1.95
				c-8.65,4.32-11.02,17.12-5.29,28.58c5.73,11.46,17.38,17.25,26.03,12.93c8.59-4.29,10.98-16.95,5.39-28.36
				C181.13,408.55,200.64,394.65,200.64,394.65z"/>
			<path d="M141.18,359.16l-0.22-1.11c0,0-30.84-68.1-31.5-42.15c-0.5,19.61-19.74,42-29.12,51.78c-8.7-6.07-20.81-6.14-27.11-1.53
				c-7.79,5.69-3.74,16.37,4.38,27.47c8.11,11.1,21.78,13.17,29.56,7.47c6.63-4.84,6.85-13.75,1.77-23.13
				C106.58,358.66,141.18,359.16,141.18,359.16z"/>
			<path d="M93.71,288.17c-9.82,9.99-32.03,10.73-43.47,10.39c-1.59-10.68-9.14-18.77-18.23-18.77c-10.25,0-18.55,10.28-18.55,22.96
				c0,12.68,8.31,22.96,18.55,22.96c8.8,0,16.15-7.59,18.06-17.77c22.17-2.79,48.52,6.62,48.52,6.62S107.24,274.42,93.71,288.17z"/>
			<path d="M103.69,196.78c-14.4,12.2-38.91,6.78-53.83,1.73c-1.17-13.2-9.84-23.47-20.37-23.47c-11.33,0-20.52,11.87-20.52,26.51
				c0,14.64,9.19,26.51,20.52,26.51c6.94,0,13.07-4.47,16.78-11.28c44.55-0.48,44.78,29.25,44.78,29.25S125.43,178.36,103.69,196.78
				z"/>
			<path d="M143.84,155.51c-17.4-0.66-30.42-19.16-36.02-28.75c4.17-8.6,3.04-18.2-3.33-23.11c-7.58-5.83-19.68-2.83-27.02,6.7
				s-7.15,22,0.43,27.83c6.32,4.86,15.77,3.57,22.99-2.52c17.79,15.83,14.99,43.35,14.99,43.35S167.36,156.4,143.84,155.51z"/>
			<path d="M214.61,129.34c-23.3-8.6-26.75-29.32-26.77-40.8c6.56-3.11,11.01-9.2,11.01-16.21c0-10.17-9.39-18.41-20.96-18.41
				c-11.58,0-20.96,8.24-20.96,18.41c0,9.26,7.79,16.9,17.92,18.2c9.19,24.08-1.85,44.82-4.2,48.78c-0.26,0.45-0.42,0.68-0.42,0.68
				l0.15-0.23C170.4,139.75,247.66,141.54,214.61,129.34z"/>
			<path d="M305.12,73.32c0-10.48-10.08-18.97-22.52-18.97c-12.44,0-22.52,8.49-22.52,18.97c0,8.22,6.22,15.2,14.9,17.83
				c-0.44,9.58-5.06,24.22-26.88,33.3l43.04,6.43c0,0-12.17-20.89-7.47-38.65C295.61,91.77,305.12,83.49,305.12,73.32z"/>
		</g>
	</g>
	
		<ellipse transform="matrix(0.2104 -0.9776 0.9776 0.2104 -69.9961 455.4789)" class="st2" cx="246.97" cy="271.07" rx="147.5" ry="173.28"/>
	<g>
		<g>
			<g>
				<path d="M270.17,287.45c-3.62,20.3-23.86,50.56-46.91,46.08c-19.77-3.85-28.21-30.67-29.28-46.08
					c-0.37-5.29-1.51-21.61,6.71-26.14c9.31-5.13,18.74,11.41,41.39,11.26c12.87-0.09,20.78-5.5,25.85-0.67
					C272.12,275.9,270.86,283.54,270.17,287.45z"/>
				<path class="st0" d="M203.19,301.59c4.36-7.38,23.92-3.12,25.95-2.66c13.12-0.51,22.75,4.45,24.07,10.76
					c0.27,1.27,0.4,3.56-1.33,6.77c-6.44,9.62-16.78,15.03-26.62,13.64C209.61,327.89,198.83,308.96,203.19,301.59z"/>
			</g>
			<g>
				<g>
					<path d="M288.59,206.09c-0.01-0.52,0-1.3,0.11-2.22c0.49-3.93,2.42-6.65,3.55-8.21c5.51-7.58,14.86-10.87,14.86-10.87
						c1.62-0.57,8.9-2.99,17.97-1.11c12.62,2.61,22.6,12.28,26.84,22.18c4.03,9.41,4.09,21.89,4.1,25.95c0,0.33,0,0.6,0,0.78
						c-9.97-5.06-21.11-10.16-33.39-14.97C310.6,212.9,299.17,209.13,288.59,206.09z"/>
					<path class="st1" d="M356.36,229.05c1.92,24.78-18.46,51.62-38.27,50.25c-18.9-1.31-30.55-27.82-32.5-45.7
						c-0.62-5.64-3.06-28.06,12.2-39.49c10.82-8.1,23.92-5.73,25.95-5.32C342.17,192.42,355,211.42,356.36,229.05z"/>
					<path d="M346.38,227.06c0,20.83-9.91,35.94-25.95,35.94c-16.05,0-24.85-15.66-24.85-36.49c0-20.83,10.13-30.39,26.18-30.39
						C337.81,196.11,346.38,206.23,346.38,227.06z"/>
					<path class="st1" d="M305.6,205.97c-1.99,4.45-1.2,9.13,1.76,10.46c2.96,1.33,6.98-1.21,8.97-5.66
						c1.99-4.45,1.2-9.13-1.76-10.46C311.61,198.98,307.59,201.52,305.6,205.97z"/>
					<ellipse class="st1" cx="308.45" cy="247.47" rx="7.54" ry="8.98"/>
				</g>
				<g>
					<path d="M134.64,221.73c0.73-4.23,3.92-19.8,17.91-29.78c1.89-1.35,21.73-15.1,36.1-5.6c7.13,4.72,9.44,12.85,10.2,16.42
						C177.45,209.09,156.05,215.41,134.64,221.73z"/>
					<path class="st1" d="M134,219.38c-10.5,19.98,0.66,42.46,19.55,46.44c18.89,3.98,40.01-6.85,45.75-28.67
						c7.82-29.73-3.99-49.36-22.66-50.54C170.95,186.25,147.73,193.28,134,219.38z"/>
					<ellipse cx="169.25" cy="224.84" rx="25.18" ry="24.73"/>
					<g>
						<path class="st1" d="M166.05,209.31c-1.36-2.75-5.22-3.61-8.62-1.92c-3.4,1.68-5.06,5.27-3.71,8.02
							c1.36,2.75,5.22,3.61,8.62,1.93C165.75,215.65,167.41,212.06,166.05,209.31z"/>
						<ellipse class="st1" cx="154.71" cy="230.05" rx="5.49" ry="5.82"/>
					</g>
				</g>
			</g>
			<g>
				<ellipse class="st0" cx="341.06" cy="311.58" rx="26.95" ry="19.63"/>
				<path class="st0" d="M156.59,289.9c-2.44,8.54-16.73,11.96-31.93,7.62c-15.2-4.33-25.54-14.78-23.11-23.32
					c2.44-8.54,16.73-11.96,31.93-7.62C148.68,270.91,159.02,281.35,156.59,289.9z"/>
			</g>
		</g>
		<g>
			<path d="M300.46,161.5c0,0,38.6-12.98,57.57,29.95c0,0,5.66,3.99,2.33-5.66c-3.33-9.65-19.63-35.27-53.91-34.61
				C287.82,155.51,300.46,161.5,300.46,161.5z"/>
			<path d="M143.84,191.01c21.68-16.02,33.51-16.24,40.37-13.09c8.33,3.82,17.86,16.5,26.18,16.42c0.81-0.01,3.1-0.03,3.94-1.42
				c1.25-2.04-1.4-5.74-2.17-6.79C204.41,175.48,174.01,160.84,143.84,191.01z"/>
		</g>
	</g>
</g>
</svg>
