<?xml version="1.0" encoding="UTF-8"?>
<svg id="_1" data-name="1" xmlns="http://www.w3.org/2000/svg" xmlns:xlink="http://www.w3.org/1999/xlink" viewBox="0 0 2000 2000">
  <defs>
    <style>
      .cls-1, .cls-2 {
        fill: #d6335f;
      }

      .cls-3 {
        fill: url(#New_swatch_5);
      }

      .cls-4, .cls-2, .cls-5, .cls-6, .cls-7 {
        fill-rule: evenodd;
      }

      .cls-4, .cls-8, .cls-9 {
        fill: #fff;
      }

      .cls-10 {
        fill: #684952;
      }

      .cls-11 {
        fill: #3f2745;
      }

      .cls-12 {
        fill: url(#linear-gradient-5);
      }

      .cls-13 {
        fill: url(#linear-gradient-4);
      }

      .cls-14 {
        fill: url(#linear-gradient-3);
      }

      .cls-15 {
        fill: url(#linear-gradient-2);
      }

      .cls-16 {
        fill: #54373e;
      }

      .cls-5, .cls-17 {
        fill: #c8dbef;
      }

      .cls-18 {
        fill: #ff4476;
      }

      .cls-19 {
        fill: #da617b;
      }

      .cls-8 {
        opacity: .34;
      }

      .cls-20 {
        fill: #4a2a52;
      }

      .cls-21 {
        fill: #2d2527;
      }

      .cls-22 {
        fill: #c1e3e2;
      }

      .cls-23 {
        fill: #5a3d61;
      }

      .cls-24, .cls-7 {
        fill: #fdffe6;
      }

      .cls-25 {
        fill: url(#linear-gradient);
        opacity: .73;
      }

      .cls-6 {
        fill: #aa375b;
      }

      .cls-26 {
        fill: #c1e3e2;
      }

      .cls-27 {
        fill: #402b45;
      }

      .cls-28 {
        fill: url(#New_swatch_5-2);
      }

      .cls-29 {
        fill: #99858a;
      }

      .cls-30 {
        opacity: .71;
      }

      .cls-31 {
        fill: #9672a1;
      }

      .cls-32 {
        fill: #f5f5f5;
      }

      .cls-33 {
        fill: #fcfcfc;
      }

      .cls-34 {
        fill: #cdf7f6;
      }

      .cls-35 {
        clip-path: url(#clippath);
      }

      .cls-36 {
        fill: #6b5c5f;
      }

      .cls-37 {
        fill: #e6fffe;
      }
    </style>
    <clipPath id="clippath">
      <path class="cls-19" d="M962.36,499.17c-8.46-8.55-11.46-22.22-21.81-28.35-7.84-4.65-18.38-3.38-25.74,1.99-7.36,5.38-11.66,14.28-12.71,23.33s.88,18.24,4.13,26.76c4.3,11.24,11.32,21.96,21.82,27.85,6.45,3.62,14.47,5.18,21.71,2.79-1.51,23.76-3.04,47.65-8.62,70.79-5.58,23.14-15.48,45.72-31.46,65.77-.2,61.92,12.06,123.85,33.39,179.45,29.27,13.32,61.03,22.35,93.17,21.53,32.14-.82,64.73-12.23,86.17-36.09-4.05-50.5-6.46-101.13-6.7-151.19-9.04.06-17.69-5.02-23.09-12.26-5.41-7.25-7.81-16.43-7.96-25.47-.18-10.11,2.35-20.25,8.05-28.04,16.61,2.06,34.28,3.95,49.37-3.29,16.93-8.12,26.82-25.96,33.76-43.4,22.65-56.88,25.08-121.59,6.76-180.01-6.69-21.33-16.54-42.49-33.49-57.73.87,24.7-11.12,49.5-31.02,64.15,10.45-14.18,12.77-33.95,5.89-50.17-1.43,24.18-12.27,46.99-26.42,66.64-15.49,21.51-35.37,40.16-58.96,52.25-23.59,12.08-51.01,17.33-76.26,12.69Z"/>
    </clipPath>
    <linearGradient id="linear-gradient" x1="1273.15" y1="827.3" x2="891.27" y2="491.07" gradientUnits="userSpaceOnUse">
      <stop offset="0" stop-color="#4a2a52" stop-opacity=".34"/>
      <stop offset="1" stop-color="#522a32"/>
    </linearGradient>
    <linearGradient id="linear-gradient-2" x1="838.18" y1="324.94" x2="1136.44" y2="506.77" gradientUnits="userSpaceOnUse">
      <stop offset="0" stop-color="#4a2a52"/>
      <stop offset="1" stop-color="#914170"/>
    </linearGradient>
    <linearGradient id="linear-gradient-3" x1="1057.12" y1="1009.9" x2="1057.12" y2="1281.48" gradientUnits="userSpaceOnUse">
      <stop offset="0" stop-color="#4a2a52"/>
      <stop offset="1" stop-color="#030202"/>
    </linearGradient>
    <linearGradient id="New_swatch_5" data-name="New swatch 5" x1="1137.28" y1="1206.19" x2="1190.41" y2="1996.34" gradientUnits="userSpaceOnUse">
      <stop offset="0" stop-color="#e6fffe"/>
      <stop offset="1" stop-color="#f1ffd6"/>
    </linearGradient>
    <linearGradient id="linear-gradient-4" x1="1540.29" y1="1400.27" x2="1828.75" y2="1400.27" gradientUnits="userSpaceOnUse">
      <stop offset="0" stop-color="#e6fffe"/>
      <stop offset="1" stop-color="#e5fffe"/>
    </linearGradient>
    <linearGradient id="New_swatch_5-2" data-name="New swatch 5" x1="1572.99" y1="1638.13" x2="1785.49" y2="1638.13" xlink:href="#New_swatch_5"/>
    <linearGradient id="linear-gradient-5" x1="1694.99" y1="1659.8" x2="1694.99" y2="1538.6" gradientUnits="userSpaceOnUse">
      <stop offset="0" stop-color="#54373e"/>
      <stop offset="1" stop-color="#544d37"/>
    </linearGradient>
  </defs>
  <path class="cls-11" d="M880.84,554.4c14.88,14.61,30.34,29.6,49.79,37.12,6.94,2.68,14.22,4.34,22.46,6.61-.84,33.9-16.85,66.48-40.63,90.65-23.78,24.17-54.87,40.34-87.44,49.78-12.33,3.57-26.05,6.12-37.64.6-7.01-3.34-12.43-9.32-16.83-15.72-19.04-27.74-20.59-66.46-3.83-95.63,5.4-9.41,12.48-17.77,20.14-25.45,25.29-25.36,58.81-44.07,93.98-47.95Z"/>
  <g id="Layer_3" data-name="Layer 3">
    <path class="cls-18" d="M875.07,552.27c-2.42-.57-4.76,1.77-5.08,4.23s.8,4.88,2.04,7.03c8.85,15.35,24.78,25.13,40.58,33.15,6.16,3.13,12.51,6.12,19.34,7.2s20.27,4.51,25.66.2c-.13-3.01-9.36-9.23-12.1-10.49-23.66-10.84-42.21-30.91-66.04-41.36-2.28-1-5.42-1.71-4.39.04Z"/>
  </g>
  <g>
    <path class="cls-19" d="M962.36,499.17c-8.46-8.55-11.46-22.22-21.81-28.35-7.84-4.65-18.38-3.38-25.74,1.99-7.36,5.38-11.66,14.28-12.71,23.33s.88,18.24,4.13,26.76c4.3,11.24,11.32,21.96,21.82,27.85,6.45,3.62,14.47,5.18,21.71,2.79-1.51,23.76-3.04,47.65-8.62,70.79-5.58,23.14-15.48,45.72-31.46,65.77-.2,61.92,12.06,123.85,33.39,179.45,29.27,13.32,61.03,22.35,93.17,21.53,32.14-.82,64.73-12.23,86.17-36.09-4.05-50.5-6.46-101.13-6.7-151.19-9.04.06-17.69-5.02-23.09-12.26-5.41-7.25-7.81-16.43-7.96-25.47-.18-10.11,2.35-20.25,8.05-28.04,16.61,2.06,34.28,3.95,49.37-3.29,16.93-8.12,26.82-25.96,33.76-43.4,22.65-56.88,25.08-121.59,6.76-180.01-6.69-21.33-16.54-42.49-33.49-57.73.87,24.7-11.12,49.5-31.02,64.15,10.45-14.18,12.77-33.95,5.89-50.17-1.43,24.18-12.27,46.99-26.42,66.64-15.49,21.51-35.37,40.16-58.96,52.25-23.59,12.08-51.01,17.33-76.26,12.69Z"/>
    <g class="cls-35">
      <path class="cls-25" d="M1104.85,644.45c-8.55-7.36-20.03-9.98-30.7-13.62-20.73-7.09-39.83-18.92-55.41-34.32-5.8,15.74-.52,33.62,8.36,47.85,8.05,12.91,19.25,24.14,33.02,30.62,13.77,6.49,30.21,7.89,44.32,2.2,6.51-2.63,12.86-7.29,14.57-14.1,2.27-9.03-6.31-18.99-14.16-18.62Z"/>
    </g>
  </g>
  <path class="cls-19" d="M581.76,1450.36c39.81,42.21,105.85,60.78,162.4,65.01-8.76-25.24-1.52-53.71,12.19-76.64,9.72-16.25,22.6-30.6,39-41.67-5.98-2.25-10.39-7.31-14.52-12.2-14.98-17.75-29.65-35.78-43.78-53.52-8.22-3.72-17.51-4.38-26.52-4.02-26.22,1.06-52.04,10.6-72.66,26.83-20.62,16.23-35.95,39.09-43.14,64.33-2.16,7.6-14.65,24.51-12.98,31.87Z"/>
  <path class="cls-19" d="M1469.76,1025.52c-.11.15-.22.3-.33.45-22.43,30.59-54.9,53.06-75.4,83.68.57,22.7,8.5,45.15,22.31,63.17,14.77,19.27,36.6,33.46,61.16,36.93-1.62-15.03-2.08-30.18-1.37-45.28.14-3.08.45-6.42,2.55-8.67,1.35-1.45,3.27-2.22,5.15-2.83,2.95-.96,5.99-1.64,9.07-2.03,1.79-.23,3.64-.37,5.24-1.2,1.42-.73,2.52-1.95,3.58-3.14,5.76-6.52,11.19-13.32,15.88-18.76.54-11.57,4.1-23.39,1.39-34.4-6.69-3.03-13.5-6.14-18.86-11.15-5.03-4.71-8.48-10.82-11.74-16.89-7.86-14.67-15.22-30.88-12-47.16-2.3,2.82-5.08,5.17-6.63,7.3Z"/>
  <path class="cls-15" d="M1195.07,503.76c0-50.8-10.98-100.47-39.04-142.09,2.43,29.12-54.65,116.4-78.57,98.47-12.02-9.01,44.66-88.15,58.7-66.34-13.02,56.16-63.36,98.23-119.31,112.14-17.22,4.28-43.41,4.92-56.37-7.54-8.2-9.22-10.93-24.22-22.5-28.52-7.5-2.78-16.13.45-22.09,5.79-6.58,5.89-10.81,14.34-11.59,23.14-.87,9.86,2.42,19.61,6.43,28.65,3.65,8.23,9.63,14.96,16.8,20.41,10.21,7.77,15.5,4.99,23.3,3.94,1.82,16.19-.86,34.11-4.57,47.38-15.11-.6-31.63-10.17-43.92-18.98-31.65-22.68-54.63-57.17-63.37-95.11-8.74-37.94-3.17-79.01,15.37-113.25,10.3-19.03,24.34-35.82,39.52-51.25,20.86-21.2,44.56-40.38,72.31-51.08,41.69-16.08,90.98-10.87,128.39,13.57,10.03,6.55,19.6,14.55,31.27,17.29,5.37,1.26,10.94,1.34,16.4,2.14,9.94,1.47,19.5,5.42,27.32,12.74,17.62.86,31.46,15.44,40.56,30.55,15.93,26.45,23.48,58.07,20.05,88.75-3.43,30.68-15.04,64.24-35.07,69.19Z"/>
  <g id="Layer_8" data-name="Layer 8">
    <path class="cls-20" d="M876.11,820.43c37.54,40.63,90.2,62.87,145.48,60.98,55.29-1.89,107.23-21.86,147.17-65.06,2.59,18.19,7.05,37.53,8.29,55.87,7.01,103.12,7.35,206.69,1.03,309.86-2.97,48.47-7.4,97.26,3.72,146.47-88.33-12.21-177.98.49-265.85,15.87-24.43-126.55-48.85-253.1-73.28-379.65-2.84-14.7-5.68-29.43-9.98-43.78-4.56-15.23-10.79-30.23-11.64-46.11s5.13-33.43,19.18-40.86c10.01-5.29,24-11.53,35.86-13.58Z"/>
    <path class="cls-14" d="M874.56,1208.01c15.95-27.91,47.48-45.48,79.6-47.03,32.42-1.56,63.62,11.67,92.58,26.33,28.96,14.66,57.67,31.25,89.57,37.27,31.89,6.03,68.58-.81,88.91-26.11,17.15-21.34,19.29-52.05,10.71-78.05-8.58-26-26.5-47.93-46.3-66.85-27.24-26.02-59.19-47.78-95.04-59.34-35.85-11.56-75.82-12.36-110.69,1.89-39.05,15.97-69.04,49.61-87.44,87.58-18.4,37.97-26.23,80.19-21.91,124.3Z"/>
  </g>
  <g id="Layer_25" data-name="Layer 25">
    <path class="cls-31" d="M820.65,1329.33c64.54-6.78,129.4-10.54,194.29-11.26,44-.49,88.32.39,131.63-7.37,31.68-5.67,64.47-15.9,95.29-6.63,4.81,1.45,9.74,3.55,12.71,7.61,2.3,3.15,3.15,7.11,3.94,10.93,12.53,60.81,25.1,122.04,26.39,184.11.79,38.03-2.67,76.01-3.58,114.04-1.12,46.71,1.59,93.42,4.31,140.07-29.92-.65-59.86-1.3-89.76-.07-57.34,2.37-115.03,11.64-171.8,3.22-20.33-3.01-40.38-8.29-60.9-9.3-17.74-.88-35.45,1.45-53.17,2.62-62.2,4.1-124.35-6.04-185.86-16.15-3.46-.57-7.36-1.43-9.11-4.47-1.54-2.69-.78-6.06.02-9.05,24.77-92.33,46.33-185.48,67.88-278.61,6.13-26.48,12.26-52.99,16.26-79.87,2.46-16.52,5.97-35.91,21.02-43.14,2.7-1.3,7.56,1.48.44,3.33Z"/>
  </g>
  <g id="Layer_5" data-name="Layer 5">
    <path class="cls-37" d="M972.88,1089.15c-1.85-31.14-1.98-58.04-4.27-89.15-7.67-104.05-52.56-209.11-60.28-313.86-107.6,21.63-207.77,65.92-270.55,146.87-19.23,24.79-34.49,52.4-49.04,80.2-27.99,53.5-53.65,108.23-76.87,163.97-20.25,48.6-38.74,98.32-47.92,150.17-4.08,23.04-6.28,46.75-2.29,69.81,3.87,22.35,13.46,43.36,24.88,62.96,24.27,41.64,58.66,79.07,103.08,97.79,3.6-29.03,12.88-59.4,31.32-83.53,18.44-24.12,46.5-41.46,76.76-44,11.31-.95,23.04.2,33.25,5.15,10.56,5.12,31.74,43.5,39.22,52.55.2.24.3.6.35,1.04,2.47,2.2,4.88,4.53,7.88,5.99,1.69.82,3.17,2.01,4.56,3.28,2.5,2.27,5.72,3.38,8.01,5.8,1.27,1.33,1.4,2.85.85,4.1,1.67,4.31-2.26,9.4-6.82,7.26-.15.55-.4,1.08-.72,1.57,2.61,2.19,5.23,4.64,5.51,8,.21,2.47-1.28,4.06-3.21,4.73.26.15.52.3.78.46,1.84,1.12,1.96,3.09,1.17,4.56v.02c.43.3.87.6,1.29.9,3.32,2.38,6.75,4.34,8.76,8.02,1.79,3.28.13,7.02-3.33,8.17-4.16,1.39-8.92-.41-12.97-1.48-4.19-1.11-8.3-2.48-12.51-3.54,4.85,2.42,9.55,5.43,11.21,10.4.8,2.42-.58,4.97-2.56,6.29-6.47,4.32-17.57-.69-24.41-2.32-.55-.13-1.1-.25-1.65-.38.49,1.1.68,2.41.47,3.82-.43,2.88-2.39,4.58-4.66,5.99.62,1.7.52,3.65-.68,5.16,2.95,1.15,4,4.91,2.29,7.25.15.5.22,1.03.16,1.57-.29,2.76-1.61,4.71-3.45,6.17.32.09.64.16.95.26,2.83.86,4.62,3.82,3.81,6.72-.22.79-.58,1.46-1.03,2.04,4.6-1.21,8.18,5.3,4.59,8.56-3.26,2.95,10.09,6.14,5.95,6.9-5.78,1.06-31.02-.72-36.63-2.47-3.81-1.19-23.35-4.35-32.21-5.75-3.01-.48-5.97-1.15-8.88-2.03-10.3-3.1-35.24-10.74-41.6-14.14-16.39,27.27-48.83,71.45-59.67,90.35-56.88,99.18-73.58,173.86-56.75,180.12,23.35,8.68,180.79,4.01,205.38,0,24.59-4.01,206.99-5.21,227.21,9.35,15.92-112.37,21.87-570.8,15.28-681.65Z"/>
    <path class="cls-3" d="M1115.27,701.01c11.38,301.48,18.3,603.12,19.96,906.85,19.67-.03,39.34-.06,58.39,4.09-.54,49.83-1.09,99.66-1.63,149.49,0,.79-.19,1.8-.97,1.96s-.63-1.58-.06-1.03"/>
    <path class="cls-37" d="M1191.99,1761.44c90.58-1.13,188.54-.25,281.65-9.09-2.36-140.68-37.24-280.71-97.93-399.61-25.03-49.34-41.33-103.09-46.36-152.81,12.19,48.94,49.79,90.8,97.14,108.17,12.93,4.74,27.49,7.69,40.3,2.65,13.98-5.5,22.89-19.35,28.43-33.31,10.03-25.25,12-53.62,5.56-80.02-7.99,11.07-24.11,13.76-37.08,9.51-12.98-4.25-23.36-13.99-32.52-24.12-18.36-20.3-34.3-45.36-34.81-73.43,10.61-6.68,18.9-16.4,27.01-25.97,18.25-21.53,36.51-43.06,53.49-67.23-16.4-50.98-37.8-100.35-63.79-147.17-16.71-30.1-35.84-59.75-62.9-81.03-22.1-17.39-48.45-28.38-74.43-39.15-54.22-22.49-109.06-45.17-167.01-54.53"/>
  </g>
  <g id="Layer_6" data-name="Layer 6">
    <path class="cls-26" d="M769.55,1210.79c-5.76-57.71-51.56-109.25-43.51-166.69-16.69,47.45,10.13,97.97,17.29,147.75,4.59,31.9.84,64.96-10.78,95.02-5.61,14.52-13.14,29.56-14.06,44.64.7.03,1.37.18,2,.46.09.02.19.04.33.07,1.01.34,1.99.77,2.97,1.14.92.1,1.01.15.26.13.63,0,1.23.11,1.82.3,1.23.29,2.78.67,3.87,1.33.16.1.31.19.44.27.19.11.43.26.76.45.9.53,1.92,1.13,2.83,1.83,0,0,.02.76.03.76,1.06-1.12,2.36-2.33,2.62-3.49,1.38-.41,1.96-2.65,2.72-4.03,10.22-18.65,18.31-38.47,23.92-58.99,5.42-19.82,8.52-40.52,6.48-60.97Z"/>
  </g>
  <g id="Layer_7" data-name="Layer 7">
    <path class="cls-22" d="M864.66,804.2c-11.61,17.81-23.21,35.62-34.59,53.28,13.02,3.66,25.83,8.61,36.86,16.43,10.91,7.74,19.72,18.02,30.49,26.69,1.79,6.54-2.3,13.08-6.12,18.68-24.86,36.48-46.19,75.36-63.59,115.93,14.42-5.62,28.93,7.3,38.77,19.24,24.04,29.16,46.5,60.23,60.44,95.36,20.56,51.81,21.38,109.02,23.75,164.81,0-.2,0-.4,1.47-.66-3.79-56.8-10.56-113.4-20.25-169.5-3-17.36-6.35-34.87-13.76-50.85-12.67-27.28-36.07-47.82-58.81-67.51,23.11-41.51,46.23-83.02,69.34-124.53-15.1-4.37-25.5-17.73-35.85-29.56s-23.62-23.64-39.34-22.98c19.4-23.95,31.08-54.05,32.91-84.82-6.36,15.3-14.96,29.6-21.73,39.99Z"/>
  </g>
  <g id="Layer_7_copy_3" data-name="Layer 7 copy 3">
    <path class="cls-22" d="M1189.22,801.41c13.59,16.35,27.18,32.7,40.52,48.92-12.5,5.14-24.66,11.54-34.71,20.59-9.94,8.95-17.51,20.18-27.2,30.04-1.02,6.7,3.8,12.73,8.24,17.85,28.92,33.35,54.6,69.51,76.58,107.79-14.97-3.92-27.89,10.6-36.29,23.6-20.51,31.74-39.22,65.21-49,101.71-14.43,53.84-8.62,110.77-4.52,166.45-.02-.2-.05-.4-1.53-.48-2.81-56.86-2.64-113.86.5-170.7.97-17.59,2.27-35.37,7.79-52.1,9.43-28.57,30.29-51.67,50.61-73.86-27.76-38.56-55.53-77.12-83.29-115.67,14.5-6.09,23.28-20.56,32.19-33.52s20.73-26.21,36.41-27.38c-22.04-21.54-37.13-50.09-42.5-80.44,8.09,14.46,18.28,27.67,26.21,37.2Z"/>
  </g>
  <g id="Layer_12" data-name="Layer 12">
    <path class="cls-22" d="M745.58,1243.61c-5.57-5.69-12.31-9.78-19.72-12.64-8.06-3.11-16.58-5.32-25.26-5.48-17.01-.31-33.85,4.44-48.59,12.84-4.24,2.42-8.34,5.11-12.16,8.16-1.84,1.47-3.53,3.02-5.05,4.81-1.37,1.61-2.9,3.39-4.81,4.36-2.12,1.08-1.22,4.94,1.26,4.66l.43-.05c1.34-.15,2.5-1.04,2.5-2.5,0-1.23-1.15-2.65-2.5-2.5l-.43.05,1.26,4.66c3.53-1.79,5.61-5.34,8.47-7.91,3.09-2.77,6.53-5.12,10.04-7.31,6.79-4.24,14.06-7.68,21.69-10.11s15.61-3.87,23.66-4.12c4.07-.13,8.21-.08,12.22.66,4.24.78,8.43,2.03,12.52,3.39,7.87,2.62,15.08,6.61,20.91,12.57,2.26,2.3,5.79-1.23,3.54-3.54h0Z"/>
    <path class="cls-22" d="M744.01,1239.55c-2.98-5.61-8.5-9.3-13.25-13.27-5.19-4.34-10.94-7.96-17.15-10.64-6.52-2.81-13.32-4.5-20.34-5.51-7.52-1.08-15.12-1.44-22.7-.9-4.14.29-8.25.88-12.35,1.54-1.84.3-3.69.63-5.45,1.25s-3.53,1.9-5.45,2.27c-1.33.26-2.08,1.85-1.75,3.08.38,1.39,1.75,2,3.08,1.75,1.62-.31,2.99-1.21,4.47-1.88s3.13-1.04,4.73-1.34c3.33-.63,6.71-1.1,10.08-1.43,7.25-.7,14.58-.63,21.82.22,6.66.78,13.33,2.16,19.6,4.58,5.75,2.22,11.21,5.35,16.08,9.11,2.64,2.03,5.2,4.22,7.75,6.36s4.95,4.4,6.52,7.36,5.83.32,4.32-2.52h0Z"/>
    <path class="cls-23" d="M927.02,499.61c1.99-1.9,5.36-2.64,7.82-1.24,2.96,1.68,4.78,5.67,5.59,8.82,1.81,7.04-.62,15.5-5.46,20.83-2.16,2.38,1.37,5.92,3.54,3.54,5.04-5.56,7.75-13.31,7.45-20.8-.15-3.84-1.26-7.67-3.25-10.97-1.88-3.11-4.58-6.1-8.29-6.85-3.92-.79-8.04.37-10.94,3.14-2.33,2.23,1.21,5.76,3.54,3.54h0Z"/>
  </g>
  <g id="Layer_7_copy_2" data-name="Layer 7 copy 2">
    <path class="cls-20" d="M754.11,1533.56c-11.62-9.71-14.15-26.56-13.46-41.69,1.72-37.48,16.11-77.36,51.39-94.88,15.12,12.83,40.94,17.02,60.73,15.77,19.79-1.25,39.37-5.87,59.2-5.43,33.83.76,65.5,16.13,94.95,32.79,8.5,4.81,17.5,10.4,21.08,19.49,2.72,6.91,1.65,15.18-2.75,21.16-4.4,5.98-11.98,9.47-18.22,10.75,1.81,8.85-1.02,18.52-7.33,24.99-6.31,6.47-15.9,9.55-24.74,7.93.5,7.72-3.01,15.58-9.08,20.37-6.07,4.79-14.54,6.37-20.44,4.64-4.63,9.38-10.69,18.32-19.15,24.47-8.46,6.15-19.61,9.2-29.64,6.25-10.9-3.2-19.6-12.97-30.94-13.66-9.48-.58-18.93,5.45-28.08,2.9-14.43-4.02-19.19-26.75-34.17-27.1-4.59-.11-8.86,2.12-13.22,3.57-13.16,4.37-24.86-2.91-36.15-12.33Z"/>
    <path class="cls-20" d="M1548.7,911.9c-4.58,4.98-9.38,10.42-10.18,17.13-.98,8.15,5.22,16.51,13.3,17.95-4.44,6.4-6.38,15.93-.95,21.52,1.75,1.8,4.06,2.95,6.38,3.89,4.01,1.63,8.23,2.74,19.42,4.1-2.51.19-5.03.38-7.54.57,5.05,18.73,22.01,33.65,41.23,36.28.72,4.62-1.08,9.55-4.6,12.62-2.08,1.81-4.75,3.08-6.14,5.46-.99,1.69-1.19,3.71-1.36,5.66-1.56,17.25-3.12,34.51-4.68,51.76,15.82-7.23,31.86-14.59,45.18-25.78s23.81-26.89,24.85-44.26c.54-8.9-1.32-18.29,2.3-26.44,1.73-3.91,4.67-7.36,5.37-11.57,1.47-8.89-7.5-17.42-5.03-26.08,1.37-4.8,6.13-9.25,4.27-13.88-1.06-2.64-3.9-3.99-6.25-5.57-16.87-11.36-13.4-40.14-30.16-51.66-1.97-1.35-4.15-2.4-5.94-3.98-4.74-4.16-5.95-11.18-10.24-15.8-5.88-6.32-16.27-6.44-24.01-2.62-7.74,3.81-13.46,10.68-18.94,17.35-9.28,11.3-17.31,23.62-26.27,33.35Z"/>
    <path class="cls-20" d="M1548.7,911.9c-4.58,4.98-9.38,10.42-10.18,17.13-.98,8.15,5.22,16.51,13.3,17.95-4.44,6.4-6.38,15.93-.95,21.52,1.75,1.8,4.06,2.95,6.38,3.89,4.01,1.63,8.23,2.74,19.42,4.1-2.51.19-5.03.38-7.54.57,5.05,18.73,22.01,33.65,41.23,36.28.72,4.62-1.08,9.55-4.6,12.62-2.08,1.81-4.75,3.08-6.14,5.46-.99,1.69-1.19,3.71-1.36,5.66-1.56,17.25-3.12,34.51-4.68,51.76,15.82-7.23,31.86-14.59,45.18-25.78s23.81-26.89,24.85-44.26c.54-8.9-1.32-18.29,2.3-26.44,1.73-3.91,4.67-7.36,5.37-11.57,1.47-8.89-7.5-17.42-5.03-26.08,1.37-4.8,6.13-9.25,4.27-13.88-1.06-2.64-3.9-3.99-6.25-5.57-16.87-11.36-13.4-40.14-30.16-51.66-1.97-1.35-4.15-2.4-5.94-3.98-4.74-4.16-5.95-11.18-10.24-15.8-5.88-6.32-16.27-6.44-24.01-2.62-7.74,3.81-13.46,10.68-18.94,17.35-9.28,11.3-17.31,23.62-26.27,33.35Z"/>
    <path class="cls-27" d="M1537.49,928.79c-9.5,9.76-16.98,21.46-21.85,34.18-4.02,10.49-6.55,22.14-14.45,30.13-7.83,7.93-20.02,11.2-26.05,20.56-4.36,6.77-4.56,15.4-3.57,23.4,3.37,27.37,22.12,54.61,49.25,59.52-.44-34.55,2-69.14,9.92-103.62l43.11-3.21c1.77-.13,3.66-.3,5.08-1.37,1.15-.86,1.84-2.19,2.48-3.48,2.63-5.3,5.08-10.82,5.75-16.7.92-8.04-1.64-16.23-6.08-22.99-4.44-6.76-10.68-12.19-17.42-16.66-3.12-2.07-6.63-4.02-10.36-3.72-5.02.4-9.66,4.81-15.8,3.94Z"/>
  </g>
  <g id="Layer_7_copy" data-name="Layer 7 copy">
    <path class="cls-20" d="M1548.7,911.9c-4.58,4.98-9.38,10.42-10.18,17.13-.98,8.15,5.22,16.51,13.3,17.95-4.44,6.4-6.38,15.93-.95,21.52,1.75,1.8,4.06,2.95,6.38,3.89,4.01,1.63,8.23,2.74,19.42,4.1-2.51.19-5.03.38-7.54.57,5.05,18.73,22.01,33.65,41.23,36.28.72,4.62-1.08,9.55-4.6,12.62-2.08,1.81-4.75,3.08-6.14,5.46-.99,1.69-1.19,3.71-1.36,5.66-1.56,17.25-3.12,34.51-4.68,51.76,15.82-7.23,31.86-14.59,45.18-25.78s23.81-26.89,24.85-44.26c.54-8.9-1.32-18.29,2.3-26.44,1.73-3.91,4.67-7.36,5.37-11.57,1.47-8.89-7.5-17.42-5.03-26.08,1.37-4.8,6.13-9.25,4.27-13.88-1.06-2.64-3.9-3.99-6.25-5.57-16.87-11.36-13.4-40.14-30.16-51.66-1.97-1.35-4.15-2.4-5.94-3.98-4.74-4.16-5.95-11.18-10.24-15.8-5.88-6.32-16.27-6.44-24.01-2.62-7.74,3.81-13.46,10.68-18.94,17.35-9.28,11.3-17.31,23.62-26.27,33.35Z"/>
  </g>
  <g id="Layer_16" data-name="Layer 16">
    <path class="cls-31" d="M743.79,1505.13c-.25-4.12-.5-8.26-.38-12.39.06-2.01.26-4.02.44-6.02s.14-3.95.44-5.89c.62-3.99,1.53-7.9,2.4-11.84s1.42-8.01,2.8-11.75c.78-2.1,1.26-4.26,1.89-6.4.68-2.31,1.48-4.58,2.31-6.84l-4.91-.66-.02.28c-.1,1.35,1.22,2.5,2.5,2.5,1.44,0,2.4-1.15,2.5-2.5l.02-.28c.09-1.22-1.02-2.32-2.17-2.46-1.3-.15-2.3.59-2.74,1.79-.72,1.96-1.42,3.92-2.03,5.92s-1.01,4.12-1.72,6.11c-1.34,3.76-2.12,7.66-2.95,11.56-.87,4.11-1.76,8.19-2.53,12.32-.39,2.08-.52,4.15-.65,6.26s-.37,4.03-.5,6.04c-.3,4.74,0,9.51.29,14.24.19,3.2,5.19,3.22,5,0h0Z"/>
    <path class="cls-31" d="M772.6,1415.32c1.67-2.98,4.34-5.27,7.11-7.53.69-.57,1.3-1.22,1.99-1.79.36-.29-.44.29.2-.15.17-.12.34-.24.52-.36.32-.22.64-.44.96-.68.73-.54,1.4-1.16,2.13-1.7-.21.16-.04.03.08-.04.17-.11.33-.22.51-.32.16-.09.47-.2.13-.09.15-.05.75-.11.19-.08,1.3-.09,2.56-1.09,2.5-2.5-.06-1.28-1.1-2.59-2.5-2.5-2.23.15-3.79,1.44-5.44,2.81-.11.09-.38.3-.12.11-.21.16-.43.31-.64.46-.35.24-.7.47-1.03.72-.92.68-1.7,1.47-2.56,2.21-1.49,1.28-3.04,2.46-4.42,3.86-1.49,1.51-2.87,3.19-3.91,5.05-.64,1.14-.31,2.78.9,3.42s2.74.32,3.42-.9h0Z"/>
    <path class="cls-31" d="M1001.62,1487.15c-10.9-6.05-22.38-10.95-34.02-15.38-5.69-2.16-11.17-4.85-16.94-6.81s-11.93-3.45-17.82-5.43c-3.33-1.12-6.61-2.39-9.95-3.46s-6.85-2.05-10.17-3.4c-1.26-.51-2.74.57-3.08,1.75l-.13.44c-.89,3.1,3.93,4.42,4.82,1.33l.13-.44-3.08,1.75c2.88,1.17,5.86,2.05,8.83,2.98s5.7,1.95,8.55,2.94c6,2.09,12.08,3.82,18.17,5.61,5.7,1.67,11.06,4.27,16.55,6.49s11.4,4.39,17.01,6.83c6.33,2.76,12.55,5.77,18.58,9.12,2.82,1.56,5.34-2.75,2.52-4.32h0Z"/>
    <path class="cls-31" d="M972.14,1520.22c-8.29-3.9-16.45-8.14-24.83-11.85-3.9-1.73-8-2.87-12.01-4.3s-7.76-3.26-11.75-4.58c-2.17-.72-4.44-1.12-6.59-1.91s-4.19-2.38-6.48-2.14c-1.34.14-2.5,1.05-2.5,2.5,0,1.24,1.15,2.64,2.5,2.5.73-.08,1.29.32,1.93.62.99.46,1.99.89,3.01,1.27,1.86.7,3.8,1.07,5.7,1.64,3.96,1.2,7.7,2.99,11.56,4.46s7.7,2.45,11.43,3.98c4.01,1.65,7.87,3.73,11.78,5.61,4.56,2.19,9.13,4.37,13.71,6.53,1.22.57,2.7.34,3.42-.9.64-1.09.33-2.84-.9-3.42h0Z"/>
    <path class="cls-31" d="M945.61,1545.54c-5.38-1.33-10.37-3.68-15.51-5.69-2.5-.98-5.05-1.87-7.5-2.99-1.18-.54-2.31-1.16-3.47-1.72s-2.5-1.34-3.76-1.61c-3.14-.66-4.48,4.16-1.33,4.82,1.07.23,2.2.92,3.17,1.41,1.16.59,2.32,1.18,3.51,1.71,2.65,1.17,5.36,2.15,8.05,3.2,5.14,2.01,10.13,4.37,15.51,5.69,3.12.77,4.46-4.05,1.33-4.82h0Z"/>
  </g>
  <g id="Layer_13" data-name="Layer 13">
    <path class="cls-22" d="M905.72,493.53c-3.73-5.57-2.06-13.44,2.17-18.65,4.22-5.21,10.44-8.33,16.51-11.17,19.21-8.98,39.45-16.78,60.35-17.5.01-2.04.04-4.16.93-6s2.89-3.31,4.59-3.67c63.6-13.41,129.32-11.21,194.82-8.07,3.88,1.79,5.06,6.63,5.78,10.84,2.91,16.96,3.91,35.57,3.91,52.78,0,7.09.17,17.7-5.28,18.77-5.17,1.01-14.18-9.15-17.56-15.35-2.52-4.62-4.76-9.77-9.54-11.09-2.62-1.34-5.91-.53-8.28,1.2-2.38,1.73-4.05,4.23-5.73,6.63-6.5,9.24-13.97,17.75-21.42,26.24-2.04,2.32-4.12,4.68-6.77,6.29-2.64,1.61-5.9,1.7-9.26,1.16-34.72-6.65-68.71-17.13-101.13-31.21-6.34-2.75-10.78-5.24-16.25-9.79-1.31-1.1-3.35-3.04-4.09-4.65s-.96-3.41-1.17-5.17c-.6-5.06-1.21-10.13-2.73-15.4-16.78-1.32-33.45,4-48.35,11.7-7.09,3.26-13.98,6.98-20.59,11.13-4.34,2.72-8.71,5.77-10.91,10.98Z"/>
  </g>
  <g id="Layer_14_copy" data-name="Layer 14 copy">
    <path class="cls-32" d="M1058.57,444.62c-2.36.3-4.2,2.36-4.97,4.62-.77,2.26-.67,4.71-.56,7.1.63,13.93,1.27,27.86,1.87,41.91,3.78,4.55,10.06,5.93,15.86,7.05,15.84,3.04,31.69,6.08,47.71,7.9,1.06.12,2.17.23,3.17-.16.92-.36,1.62-1.09,2.3-1.8,10.1-10.61,20.48-20.95,31.14-31,1.4-1.32,2.96-2.7,4.87-2.86,1.75-.14,3.4.78,4.89,1.73,3.94,2.51,7.78,5.51,9.93,9.67,1.52,2.93,2.16,6.35,4.26,8.89s6.62,3.56,8.46.82c.84-1.26.84-2.88.8-4.39-.33-13.56-.65-27.12-.98-40.68-.06-2.59-.14-5.24-1.08-7.64-.94-2.41-2.94-4.57-5.46-5.08-40.74-3.54-81.86-1.17-122.23,3.93Z"/>
  </g>
  <g id="Layer_17" data-name="Layer 17">
    <rect class="cls-20" x="97.41" y="1743.41" width="1760" height="40"/>
  </g>
  <g id="Layer_18" data-name="Layer 18">
    <g>
      <path class="cls-33" d="M497.33,1544.58h9.75c2.67,0,4.84,2.17,4.84,4.84v201.33c0,2.67-2.17,4.84-4.84,4.84h-12.88c-8.05,0-14.59-6.54-14.59-14.59v-178.7c0-9.78,7.94-17.71,17.71-17.71Z"/>
      <path class="cls-17" d="M511.58,1543.47c-8.04-.58-18.37-1.15-26.41-1.74-2.26-.16-4.52-.33-6.78-.14-1.27.11-2.53.33-3.87.67,0,.01,0,.02,0,.03.05.57.1,1.14.16,1.72.11,1.16.22,2.43-.18,3.55-.05.14-.11.26-.17.39,5.07,2.82,10.08,5.76,15,8.83,7.44,4.64,14.7,9.57,22.4,13.76,0-8.95.5-18.04-.15-27.07Z"/>
      <path class="cls-1" d="M497.33,1632.58h9.75c2.67,0,4.84,2.17,4.84,4.84v113.33c0,2.67-2.17,4.84-4.84,4.84h-12.88c-8.05,0-14.59-6.54-14.59-14.59v-90.7c0-9.78,7.94-17.71,17.71-17.71Z"/>
      <g class="cls-30">
        <path class="cls-24" d="M484.64,1724.29c-.37,5.78-1.16,12.02,1.11,17.51,1.02,2.47,2.57,4.45,4.57,6.21s4.74,2.61,7.36,2.56c1.93-.04,1.93-3.04,0-3-2.28.04-4.29-.81-5.96-2.32-1.76-1.6-2.79-3.49-3.61-5.69-.89-2.39-1.01-5.22-.85-7.73s.21-5.03.38-7.55c.12-1.93-2.88-1.92-3,0h0Z"/>
      </g>
      <rect class="cls-24" x="471.01" y="1531.51" width="49.5" height="20" rx="6" ry="6"/>
    </g>
    <g>
      <path class="cls-33" d="M567.33,1544.58h9.75c2.67,0,4.84,2.17,4.84,4.84v201.33c0,2.67-2.17,4.84-4.84,4.84h-12.88c-8.05,0-14.59-6.54-14.59-14.59v-178.7c0-9.78,7.94-17.71,17.71-17.71Z"/>
      <path class="cls-17" d="M581.58,1543.47c-8.04-.58-18.37-1.15-26.41-1.74-2.26-.16-4.52-.33-6.78-.14-1.27.11-2.53.33-3.87.67,0,.01,0,.02,0,.03.05.57.1,1.14.16,1.72.11,1.16.22,2.43-.18,3.55-.05.14-.11.26-.17.39,5.07,2.82,10.08,5.76,15,8.83,7.44,4.64,14.7,9.57,22.4,13.76,0-8.95.5-18.04-.15-27.07Z"/>
      <path class="cls-1" d="M567.33,1632.58h9.75c2.67,0,4.84,2.17,4.84,4.84v113.33c0,2.67-2.17,4.84-4.84,4.84h-12.88c-8.05,0-14.59-6.54-14.59-14.59v-90.7c0-9.78,7.94-17.71,17.71-17.71Z"/>
      <g class="cls-30">
        <path class="cls-24" d="M554.64,1724.29c-.37,5.78-1.16,12.02,1.11,17.51,1.02,2.47,2.57,4.45,4.57,6.21s4.74,2.61,7.36,2.56c1.93-.04,1.93-3.04,0-3-2.28.04-4.29-.81-5.96-2.32-1.76-1.6-2.79-3.49-3.61-5.69-.89-2.39-1.01-5.22-.85-7.73s.21-5.03.38-7.55c.12-1.93-2.88-1.92-3,0h0Z"/>
      </g>
      <rect class="cls-24" x="541.01" y="1531.51" width="49.5" height="20" rx="6" ry="6"/>
    </g>
    <g>
      <path class="cls-33" d="M638.39,1544.58h9.75c2.67,0,4.84,2.17,4.84,4.84v201.33c0,2.67-2.17,4.84-4.84,4.84h-12.88c-8.05,0-14.59-6.54-14.59-14.59v-178.7c0-9.78,7.94-17.71,17.71-17.71Z"/>
      <path class="cls-17" d="M652.64,1543.47c-8.04-.58-18.37-1.15-26.41-1.74-2.26-.16-4.52-.33-6.78-.14-1.27.11-2.53.33-3.87.67,0,.01,0,.02,0,.03.05.57.1,1.14.16,1.72.11,1.16.22,2.43-.18,3.55-.05.14-.11.26-.17.39,5.07,2.82,10.08,5.76,15,8.83,7.44,4.64,14.7,9.57,22.4,13.76,0-8.95.5-18.04-.15-27.07Z"/>
      <path class="cls-1" d="M638.39,1632.58h9.75c2.67,0,4.84,2.17,4.84,4.84v113.33c0,2.67-2.17,4.84-4.84,4.84h-12.88c-8.05,0-14.59-6.54-14.59-14.59v-90.7c0-9.78,7.94-17.71,17.71-17.71Z"/>
      <g class="cls-30">
        <path class="cls-24" d="M625.7,1724.29c-.37,5.78-1.16,12.02,1.11,17.51,1.02,2.47,2.57,4.45,4.57,6.21s4.74,2.61,7.36,2.56c1.93-.04,1.93-3.04,0-3-2.28.04-4.29-.81-5.96-2.32-1.76-1.6-2.79-3.49-3.61-5.69-.89-2.39-1.01-5.22-.85-7.73s.21-5.03.38-7.55c.12-1.93-2.88-1.92-3,0h0Z"/>
      </g>
      <rect class="cls-24" x="612.07" y="1531.51" width="49.5" height="20" rx="6" ry="6"/>
    </g>
  </g>
  <g id="Layer_18_copy" data-name="Layer 18 copy">
    <g>
      <path class="cls-33" d="M1028.1,1523.8h9.75c2.67,0,4.84,2.17,4.84,4.84v201.33c0,2.67-2.17,4.84-4.84,4.84h-12.88c-8.05,0-14.59-6.54-14.59-14.59v-178.7c0-9.78,7.94-17.71,17.71-17.71Z"/>
      <path class="cls-1" d="M1028.1,1611.8h9.75c2.67,0,4.84,2.17,4.84,4.84v113.33c0,2.67-2.17,4.84-4.84,4.84h-12.88c-8.05,0-14.59-6.54-14.59-14.59v-90.7c0-9.78,7.94-17.71,17.71-17.71Z"/>
      <g class="cls-30">
        <path class="cls-24" d="M1015.42,1703.51c-.37,5.78-1.16,12.02,1.11,17.51,1.02,2.47,2.57,4.45,4.57,6.21s4.74,2.61,7.36,2.56c1.93-.04,1.93-3.04,0-3-2.28.04-4.29-.81-5.96-2.32-1.76-1.6-2.79-3.49-3.61-5.69-.89-2.39-1.01-5.22-.85-7.73s.21-5.03.38-7.55c.12-1.93-2.88-1.92-3,0h0Z"/>
      </g>
      <rect class="cls-24" x="1001.79" y="1510.72" width="49.5" height="20" rx="6" ry="6"/>
    </g>
    <g>
      <path class="cls-33" d="M1095.1,1523.8h9.75c2.67,0,4.84,2.17,4.84,4.84v201.33c0,2.67-2.17,4.84-4.84,4.84h-12.88c-8.05,0-14.59-6.54-14.59-14.59v-178.7c0-9.78,7.94-17.71,17.71-17.71Z"/>
      <path class="cls-1" d="M1095.1,1611.8h9.75c2.67,0,4.84,2.17,4.84,4.84v113.33c0,2.67-2.17,4.84-4.84,4.84h-12.88c-8.05,0-14.59-6.54-14.59-14.59v-90.7c0-9.78,7.94-17.71,17.71-17.71Z"/>
      <g class="cls-30">
        <path class="cls-24" d="M1082.42,1703.51c-.37,5.78-1.16,12.02,1.11,17.51,1.02,2.47,2.57,4.45,4.57,6.21s4.74,2.61,7.36,2.56c1.93-.04,1.93-3.04,0-3-2.28.04-4.29-.81-5.96-2.32-1.76-1.6-2.79-3.49-3.61-5.69-.89-2.39-1.01-5.22-.85-7.73s.21-5.03.38-7.55c.12-1.93-2.88-1.92-3,0h0Z"/>
      </g>
      <rect class="cls-24" x="1068.79" y="1510.72" width="49.5" height="20" rx="6" ry="6"/>
    </g>
  </g>
  <g id="Layer_22_copy" data-name="Layer 22 copy">
    <polygon class="cls-20" points="1162.62 1607.67 881.08 1607.67 881.08 1607.67 850.08 1607.67 850.08 1607.67 850.08 1637.85 850.08 1743.41 881.08 1743.41 881.08 1637.85 1162.62 1637.85 1162.62 1743.41 1193.62 1743.41 1193.62 1637.85 1193.62 1607.67 1162.62 1607.67"/>
  </g>
  <g>
    <path class="cls-4" d="M390.01,1755.58h-244.94c-9.02,0-16.76-4.52-21.19-12.38-4.43-7.85-4.3-16.82.37-24.53l105.85-223.42v-115h74.9v115l105.85,223.41c4.66,7.72,4.8,16.68.37,24.53-4.43,7.85-12.17,12.38-21.19,12.38Z"/>
    <polygon class="cls-5" points="304.99 1387.24 304.99 1442.83 230.09 1416.28 230.09 1380.42 304.99 1387.24"/>
    <polygon class="cls-5" points="304.99 1387.24 304.99 1442.83 230.09 1416.28 230.09 1380.42 304.99 1387.24"/>
    <path class="cls-7" d="M229.47,1365.95h76.13c11.75,0,21.37,9.62,21.37,21.37h0c0,11.75-9.62,21.37-21.37,21.37h-76.13c-11.75,0-21.37-9.62-21.37-21.37h0c0-11.75,9.62-21.37,21.37-21.37Z"/>
    <path class="cls-2" d="M389.9,1736.59c2.01,0,3.88-1.09,4.83-2.86s.93-3.44-.16-5.24l-56.98-94.33c-50.09,21.77-50.9-23.87-94.16-27.45-21.44-1.77-45.87,12.92-57,31.33l-45.94,90.44c-1.09,1.8-1.14,3.42-.16,5.24s2.82,2.86,4.83,2.86h244.74Z"/>
    <path class="cls-6" d="M199.81,1724.41c10.81,0,19.63-8.81,19.63-19.63s-8.82-19.63-19.63-19.63-19.63,8.82-19.63,19.63,8.82,19.63,19.63,19.63Z"/>
    <path class="cls-6" d="M294.21,1709.65c11.42,0,20.73-9.31,20.73-20.73s-9.31-20.73-20.73-20.73-20.73,9.31-20.73,20.73,9.31,20.73,20.73,20.73Z"/>
    <path class="cls-6" d="M234.95,1670.51c4.67,0,8.48-3.81,8.48-8.48s-3.81-8.48-8.48-8.48-8.48,3.81-8.48,8.48,3.81,8.48,8.48,8.48Z"/>
    <path class="cls-6" d="M358.57,1714.36c4.67,0,8.48-3.81,8.48-8.48s-3.81-8.48-8.48-8.48-8.48,3.81-8.48,8.48,3.81,8.48,8.48,8.48Z"/>
  </g>
  <rect class="cls-36" x="1513.84" y="1000" width="87.47" height="127.79"/>
  <rect class="cls-9" x="1501.86" y="990.37" width="111.42" height="41.8" rx="8.88" ry="8.88"/>
  <polygon class="cls-8" points="1618.07 1151.77 1497.07 1151.77 1515.49 1127.79 1602.96 1127.79 1618.07 1151.77"/>
  <rect class="cls-36" x="1426.66" y="1698.71" width="407.85" height="44.7"/>
  <g>
    <path class="cls-13" d="M1792.61,1282.79c64.76,95.08,40.1,225.1-54.97,289.86-41.92,28.55-91.85,40.51-140.84,34.94-17.74-1.99-35.39-6.32-52.46-13.02-1.36-.5-2.72-1.04-4.05-1.6l4.9-11.82,16.16-39.09c.67.28,1.31.53,1.96.78,12.05,4.81,24.49,8.04,37.04,9.66,36.91,4.85,74.69-3.85,106.29-25.37,69.97-47.66,88.12-143.37,40.46-213.34-27.74-40.72-73.54-65.33-121.84-66.98-8.81-.32-17.69.13-26.56,1.38-.8.07-1.56.18-2.34.32l-8.5-54.41c13.68-2.15,27.37-2.88,40.96-2.26,64.97,2.82,126.45,36.12,163.8,90.95Z"/>
    <path class="cls-34" d="M1774.54,1296.53c57.09,83.81,35.34,198.46-48.47,255.55-37.95,25.85-83.32,36.27-127.66,30.34-15.71-2.07-31.26-6.21-46.32-12.44l11.22-27.13,7.34-17.73c10.08,4.18,20.43,7.07,30.91,8.71,33.64,5.31,68.34-2.22,97.19-21.88,61.68-42.01,77.68-126.38,35.65-188.08-25-36.7-66.64-58.54-110.28-59.14-7.5-.12-15.06.38-22.6,1.57l-2.83-18.11-4.67-29.84c11.1-1.75,22.23-2.42,33.23-2.12,58.36,1.65,113.82,31.16,147.29,80.29Z"/>
  </g>
  <rect class="cls-9" x="1473.14" y="1148.33" width="168.85" height="196.07" rx="23.59" ry="23.59"/>
  <rect class="cls-21" x="1344.02" y="1500.04" width="297.98" height="43.62"/>
  <path class="cls-21" d="M1459.63,1543.66h150.96v61.7c0,7.99-6.49,14.48-14.48,14.48h-121.99c-7.99,0-14.48-6.49-14.48-14.48v-61.7h0Z"/>
  <circle class="cls-16" cx="1642" cy="1164.63" r="45.11"/>
  <circle class="cls-16" cx="1642" cy="1321.71" r="45.11"/>
  <rect class="cls-29" x="1447.09" y="1475.16" width="176.03" height="24.88"/>
  <polygon class="cls-28" points="1785.49 1698.71 1572.99 1698.71 1623.29 1577.55 1719.69 1577.55 1785.49 1698.71"/>
  <circle class="cls-12" cx="1694.99" cy="1604.11" r="52.99"/>
  <rect class="cls-21" x="1466.96" y="1648.8" width="136.3" height="29.87"/>
  <rect class="cls-16" x="1474.49" y="1678.67" width="121.24" height="20.05"/>
  <circle class="cls-10" cx="1642" cy="1321.71" r="35.58"/>
  <circle class="cls-10" cx="1642" cy="1164.63" r="35.58"/>
</svg>