<?xml version="1.0" encoding="UTF-8" standalone="no"?>
<!-- Created with Inkscape (http://www.inkscape.org/) -->

<svg
   version="1.1"
   id="svg4241"
   width="880"
   height="880"
   viewBox="0 0 880 880"
   sodipodi:docname="prison-building-publicdomainvectors.org.svg"
   inkscape:version="1.2 (dc2aedaf03, 2022-05-15)"
   xmlns:inkscape="http://www.inkscape.org/namespaces/inkscape"
   xmlns:sodipodi="http://sodipodi.sourceforge.net/DTD/sodipodi-0.dtd"
   xmlns="http://www.w3.org/2000/svg"
   xmlns:svg="http://www.w3.org/2000/svg">
  <defs
     id="defs4245">
    <clipPath
       clipPathUnits="userSpaceOnUse"
       id="clipPath4257">
      <path
         d="M 0,660 H 660 V 0 H 0 Z"
         id="path4255" />
    </clipPath>
  </defs>
  <sodipodi:namedview
     id="namedview4243"
     pagecolor="#ffffff"
     bordercolor="#000000"
     borderopacity="0.25"
     inkscape:showpageshadow="2"
     inkscape:pageopacity="0.0"
     inkscape:pagecheckerboard="0"
     inkscape:deskcolor="#d1d1d1"
     showgrid="false"
     inkscape:zoom="0.95113636"
     inkscape:cx="440.52569"
     inkscape:cy="440.52569"
     inkscape:window-width="1920"
     inkscape:window-height="1017"
     inkscape:window-x="-8"
     inkscape:window-y="-8"
     inkscape:window-maximized="1"
     inkscape:current-layer="g4249">
    <inkscape:page
       x="0"
       y="0"
       id="page4247"
       width="880"
       height="880" />
  </sodipodi:namedview>
  <g
     id="g4249"
     inkscape:groupmode="layer"
     inkscape:label="Page 1"
     transform="matrix(1.3333333,0,0,-1.3333333,0,880)">
    <g
       id="g4251">
      <g
         id="g4253"
         clip-path="url(#clipPath4257)">
        <g
           id="g4259"
           transform="translate(80.8418,152.2705)">
          <path
             d="m 0,0 h 528.765 c 16.369,0 29.761,-13.393 29.761,-29.762 0,-16.369 -13.392,-29.761 -29.761,-29.761 L 0,-59.523 c -16.37,0 -29.762,13.392 -29.762,29.761 C -29.762,-13.393 -16.37,0 0,0"
             style="fill:#adda1a;fill-opacity:1;fill-rule:evenodd;stroke:none"
             id="path4261" />
        </g>
        <path
           d="M 472.903,161.833 H 549.05 V 394.71 h -76.147 z"
           style="fill:#c3afa6;fill-opacity:1;fill-rule:evenodd;stroke:none"
           id="path4263" />
        <path
           d="m 519.109,161.833 h 29.94 V 394.71 h -29.94 z"
           style="fill:#b6a298;fill-opacity:1;fill-rule:evenodd;stroke:none"
           id="path4265" />
        <g
           id="g4267"
           transform="translate(510.9756,496.3604)">
          <path
             d="m 0,0 24.812,-54.06 24.809,-54.062 H 0 -49.618 l 24.808,54.062 z"
             style="fill:#ef3720;fill-opacity:1;fill-rule:evenodd;stroke:none"
             id="path4269" />
        </g>
        <g
           id="g4271"
           transform="translate(510.9756,496.3604)">
          <path
             d="M 0,0 11.092,-108.122 H 49.621 Z"
             style="fill:#d93122;fill-opacity:1;fill-rule:evenodd;stroke:none"
             id="path4273" />
        </g>
        <path
           d="m 472.903,381.771 h 46.206 v 6.467 h -46.206 z"
           style="fill:#b6a298;fill-opacity:1;fill-rule:evenodd;stroke:none"
           id="path4275" />
        <path
           d="m 519.109,381.771 h 29.94 v 6.467 h -29.94 z"
           style="fill:#a48d84;fill-opacity:1;fill-rule:evenodd;stroke:none"
           id="path4277" />
        <g
           id="g4279"
           transform="translate(493.6182,370.7842)">
          <path
             d="M 0,0 V 0 C -3.444,0 -6.26,-3.078 -6.26,-6.838 V -30.301 H 6.26 V -6.838 C 6.26,-3.078 3.442,0 0,0"
             style="fill:#e8d9d6;fill-opacity:1;fill-rule:evenodd;stroke:none"
             id="path4281" />
        </g>
        <g
           id="g4283"
           transform="translate(490.6572,340.4834)">
          <path
             d="m 0,0 h 9.221 v 24.274 c 0,2.765 -1.962,5.113 -4.61,5.814 C 1.962,29.387 0,27.039 0,24.274 Z"
             style="fill:#766864;fill-opacity:1;fill-rule:evenodd;stroke:none"
             id="path4285" />
        </g>
        <g
           id="g4287"
           transform="translate(509.5127,307.5742)">
          <path
             d="M 0,0 V 0 C -3.443,0 -6.26,-3.076 -6.26,-6.838 V -30.299 H 6.261 V -6.838 C 6.261,-3.076 3.444,0 0,0"
             style="fill:#e8d9d6;fill-opacity:1;fill-rule:evenodd;stroke:none"
             id="path4289" />
        </g>
        <g
           id="g4291"
           transform="translate(506.5518,277.2754)">
          <path
             d="m 0,0 h 9.222 v 24.272 c 0,2.765 -1.962,5.112 -4.611,5.812 C 1.962,29.384 0,27.037 0,24.272 Z"
             style="fill:#766864;fill-opacity:1;fill-rule:evenodd;stroke:none"
             id="path4293" />
        </g>
        <g
           id="g4295"
           transform="translate(535.9531,263.166)">
          <path
             d="M 0,0 V 0 C 3.444,0 6.26,-3.076 6.26,-6.836 V -30.301 H -6.26 V -6.836 C -6.26,-3.076 -3.442,0 0,0"
             style="fill:#e8d9d6;fill-opacity:1;fill-rule:evenodd;stroke:none"
             id="path4297" />
        </g>
        <g
           id="g4299"
           transform="translate(538.915,232.8652)">
          <path
             d="m 0,0 h -9.222 v 24.275 c 0,2.764 1.962,5.111 4.612,5.813 C -1.962,29.386 0,27.039 0,24.275 Z"
             style="fill:#766864;fill-opacity:1;fill-rule:evenodd;stroke:none"
             id="path4301" />
        </g>
        <path
           d="m 260.356,238.255 h 76.147 v 232.878 h -76.147 z"
           style="fill:#efe4e1;fill-opacity:1;fill-rule:evenodd;stroke:none"
           id="path4303" />
        <path
           d="m 306.561,238.255 h 29.942 v 232.878 h -29.942 z"
           style="fill:#e4d6d1;fill-opacity:1;fill-rule:evenodd;stroke:none"
           id="path4305" />
        <g
           id="g4307"
           transform="translate(298.4297,572.7861)">
          <path
             d="m 0,0 24.81,-54.063 24.809,-54.059 H 0 -49.618 l 24.809,54.059 z"
             style="fill:#ef3720;fill-opacity:1;fill-rule:evenodd;stroke:none"
             id="path4309" />
        </g>
        <g
           id="g4311"
           transform="translate(298.4297,572.7861)">
          <path
             d="M 0,0 11.09,-108.122 H 49.619 Z"
             style="fill:#d93122;fill-opacity:1;fill-rule:evenodd;stroke:none"
             id="path4313" />
        </g>
        <path
           d="m 260.356,458.196 h 46.205 v 6.468 h -46.205 z"
           style="fill:#e4d6d1;fill-opacity:1;fill-rule:evenodd;stroke:none"
           id="path4315" />
        <path
           d="m 306.561,458.196 h 29.942 v 6.468 h -29.942 z"
           style="fill:#d4c0ba;fill-opacity:1;fill-rule:evenodd;stroke:none"
           id="path4317" />
        <g
           id="g4319"
           transform="translate(281.0723,447.21)">
          <path
             d="M 0,0 V 0 C -3.444,0 -6.262,-3.078 -6.262,-6.84 V -30.301 H 6.261 V -6.84 C 6.261,-3.078 3.442,0 0,0"
             style="fill:#b2a29e;fill-opacity:1;fill-rule:evenodd;stroke:none"
             id="path4321" />
        </g>
        <g
           id="g4323"
           transform="translate(278.1113,416.9092)">
          <path
             d="m 0,0 h 9.222 v 24.272 c 0,2.767 -1.962,5.112 -4.611,5.814 C 1.96,29.384 0,27.039 0,24.272 Z"
             style="fill:#948681;fill-opacity:1;fill-rule:evenodd;stroke:none"
             id="path4325" />
        </g>
        <g
           id="g4327"
           transform="translate(296.9668,383.998)">
          <path
             d="M 0,0 V 0 C -3.443,0 -6.261,-3.077 -6.261,-6.838 V -30.301 H 6.259 V -6.838 C 6.259,-3.077 3.443,0 0,0"
             style="fill:#b2a29e;fill-opacity:1;fill-rule:evenodd;stroke:none"
             id="path4329" />
        </g>
        <g
           id="g4331"
           transform="translate(294.0059,353.6973)">
          <path
             d="m 0,0 h 9.22 v 24.275 c 0,2.765 -1.96,5.111 -4.609,5.813 C 1.96,29.386 0,27.04 0,24.275 Z"
             style="fill:#948681;fill-opacity:1;fill-rule:evenodd;stroke:none"
             id="path4333" />
        </g>
        <g
           id="g4335"
           transform="translate(323.3799,447.21)">
          <path
             d="m 0,0 h 0.002 c 3.442,0 6.26,-3.078 6.26,-6.84 V -30.301 H -6.258 V -6.84 C -6.258,-3.078 -3.442,0 0,0"
             style="fill:#b2a29e;fill-opacity:1;fill-rule:evenodd;stroke:none"
             id="path4337" />
        </g>
        <g
           id="g4339"
           transform="translate(326.3418,416.9092)">
          <path
             d="m 0,0 h -9.22 v 24.272 c 0,2.767 1.96,5.112 4.61,5.814 C -1.961,29.384 0,27.039 0,24.272 Z"
             style="fill:#948681;fill-opacity:1;fill-rule:evenodd;stroke:none"
             id="path4341" />
        </g>
        <path
           d="m 126.915,161.833 h 76.146 V 394.71 h -76.146 z"
           style="fill:#efe4e1;fill-opacity:1;fill-rule:evenodd;stroke:none"
           id="path4343" />
        <path
           d="m 173.118,161.833 h 29.943 V 394.71 h -29.943 z"
           style="fill:#e4d6d1;fill-opacity:1;fill-rule:evenodd;stroke:none"
           id="path4345" />
        <path
           d="M 316.721,158.967 H 488.239 V 302.39 H 316.721 Z"
           style="fill:#e4d6d1;fill-opacity:1;fill-rule:evenodd;stroke:none"
           id="path4347" />
        <path
           d="m 225.05,158.967 h 91.671 V 302.39 H 225.05 Z"
           style="fill:#efe4e1;fill-opacity:1;fill-rule:evenodd;stroke:none"
           id="path4349" />
        <g
           id="g4351"
           transform="translate(212.2051,298.5078)">
          <path
             d="m 0,0 98.645,56.188 h 24.448 L 106.366,0 Z"
             style="fill:#ef3720;fill-opacity:1;fill-rule:evenodd;stroke:none"
             id="path4353" />
        </g>
        <path
           d="m 270.185,210.485 h -4.067 v -17.741 h 4.067 z m 21.664,0 h -4.065 v -17.741 h 4.065 z m 21.666,0 h -4.067 v -17.741 h 4.067 z m 21.664,0 h -4.067 v -17.741 h 4.067 z m 21.664,0 h -4.066 v -17.741 h 4.066 z m 21.665,0 h -4.067 v -17.741 h 4.067 z m 21.664,0 h -4.065 v -17.741 h 4.065 z m 21.664,0 h -4.065 v -17.741 h 4.065 z m 21.666,0 h -4.067 v -17.741 h 4.067 z m 21.664,0 h -4.065 v -17.741 h 4.065 z m 21.664,0 h -4.065 v -17.741 h 4.065 z m 21.666,0 h -4.066 v -17.741 h 4.066 z m 21.664,0 h -4.066 v -17.741 h 4.066 z m 21.665,0 h -4.067 v -17.741 h 4.067 z m 21.664,0 h -4.065 v -17.741 h 4.065 z m 21.664,0 h -4.065 v -17.741 h 4.065 z m -346.634,0 h -4.065 v -17.741 h 4.065 z"
           style="fill:#b2a29e;fill-opacity:1;fill-rule:evenodd;stroke:none"
           id="path4355" />
        <g
           id="g4357"
           transform="translate(236.2266,199.0264)">
          <path
             d="M 0,0 H 12.292 V 11.459 H 23.013 V 0 H 33.958 V 11.459 H 44.677 V 0 H 55.622 V 11.459 H 66.341 V 0 H 77.288 V 11.459 H 88.006 V 0 h 10.946 v 11.459 h 10.72 V 0 h 10.944 v 11.459 h 10.72 V 0 h 10.945 V 11.459 H 153 V 0 h 10.945 v 11.459 h 10.72 V 0 h 10.944 v 11.459 h 10.72 V 0 h 10.946 v 11.459 h 10.718 V 0 h 10.946 v 11.459 h 10.72 V 0 h 10.944 v 11.459 h 10.72 V 0 h 10.947 v 11.459 h 10.719 V 0 h 10.945 v 11.459 h 10.719 V 0 h 10.946 v 11.459 h 10.718 V 0 h 10.946 v 11.459 h 10.719 V 0 h 10.945 v 11.459 h 10.719 V 0 -6.282 -73.189 H 0 Z"
             style="fill:#766864;fill-opacity:1;fill-rule:evenodd;stroke:none"
             id="path4359" />
        </g>
        <path
           d="m 116.958,210.485 h 4.066 v -17.741 h -4.066 z m 21.665,0 h 4.065 v -17.741 h -4.065 z m 21.665,0 h 4.066 v -17.741 h -4.066 z m 21.663,0 h 4.067 v -17.741 h -4.067 z m 21.665,0 h 4.066 v -17.741 h -4.066 z m 21.666,0 h 4.065 v -17.741 h -4.065 z m -129.988,0 h 4.066 v -17.741 h -4.066 z"
           style="fill:#b2a29e;fill-opacity:1;fill-rule:evenodd;stroke:none"
           id="path4361" />
        <g
           id="g4363"
           transform="translate(236.2266,199.0264)">
          <path
             d="m 0,0 h -10.944 v 11.459 h -10.72 V 0 H -32.61 V 11.459 H -43.328 V 0 H -54.275 V 11.459 H -64.994 V 0 H -75.939 V 11.459 H -86.658 V 0 h -10.946 v 11.459 h -10.718 V 0 h -10.947 v 11.459 h -10.718 V 0 h -10.946 v 11.459 h -10.719 V 0 -6.282 -73.189 H 0 Z"
             style="fill:#948681;fill-opacity:1;fill-rule:evenodd;stroke:none"
             id="path4365" />
        </g>
        <g
           id="g4367"
           transform="translate(500.1611,298.5078)">
          <path
             d="m 0,0 -98.647,56.188 h -66.216 L -181.59,0 Z"
             style="fill:#d93122;fill-opacity:1;fill-rule:evenodd;stroke:none"
             id="path4369" />
        </g>
        <g
           id="g4371"
           transform="translate(336.6816,288.8184)">
          <path
             d="M 0,0 H 0.002 C 3.763,0 6.84,-3.077 6.84,-6.838 V -30.301 H -6.837 V -6.838 C -6.837,-3.077 -3.761,0 0,0"
             style="fill:#b2a29e;fill-opacity:1;fill-rule:evenodd;stroke:none"
             id="path4373" />
        </g>
        <g
           id="g4375"
           transform="translate(339.918,258.5176)">
          <path
             d="m 0,0 h -10.073 v 24.273 c 0,2.765 2.141,5.113 5.037,5.813 C -2.144,29.386 0,27.038 0,24.273 Z"
             style="fill:#948681;fill-opacity:1;fill-rule:evenodd;stroke:none"
             id="path4377" />
        </g>
        <g
           id="g4379"
           transform="translate(359.0703,288.8184)">
          <path
             d="M 0,0 V 0 C 3.761,0 6.839,-2.713 6.839,-6.027 V -30.301 H -6.839 V -6.027 C -6.839,-2.713 -3.762,0 0,0"
             style="fill:#b2a29e;fill-opacity:1;fill-rule:evenodd;stroke:none"
             id="path4381" />
        </g>
        <g
           id="g4383"
           transform="translate(362.3047,258.5176)">
          <path
             d="m 0,0 h -10.073 v 24.273 c 0,2.765 2.143,5.113 5.037,5.813 C -2.143,29.386 0,27.038 0,24.273 Z"
             style="fill:#948681;fill-opacity:1;fill-rule:evenodd;stroke:none"
             id="path4385" />
        </g>
        <g
           id="g4387"
           transform="translate(381.457,288.8184)">
          <path
             d="M 0,0 H 0.001 C 3.762,0 6.839,-2.713 6.839,-6.027 V -30.301 H -6.839 V -6.027 C -6.839,-2.713 -3.761,0 0,0"
             style="fill:#b2a29e;fill-opacity:1;fill-rule:evenodd;stroke:none"
             id="path4389" />
        </g>
        <g
           id="g4391"
           transform="translate(384.6924,258.5176)">
          <path
             d="m 0,0 h -10.074 v 24.273 c 0,2.765 2.142,5.113 5.036,5.813 C -2.143,29.386 0,27.038 0,24.273 Z"
             style="fill:#948681;fill-opacity:1;fill-rule:evenodd;stroke:none"
             id="path4393" />
        </g>
        <g
           id="g4395"
           transform="translate(403.8438,288.8184)">
          <path
             d="M 0,0 H 0.002 C 3.763,0 6.84,-2.713 6.84,-6.027 V -30.301 H -6.838 V -6.027 C -6.838,-2.713 -3.761,0 0,0"
             style="fill:#b2a29e;fill-opacity:1;fill-rule:evenodd;stroke:none"
             id="path4397" />
        </g>
        <g
           id="g4399"
           transform="translate(407.0781,258.5176)">
          <path
             d="m 0,0 h -10.072 v 24.273 c 0,2.765 2.142,5.113 5.036,5.813 C -2.141,29.386 0,27.038 0,24.273 Z"
             style="fill:#948681;fill-opacity:1;fill-rule:evenodd;stroke:none"
             id="path4401" />
        </g>
        <g
           id="g4403"
           transform="translate(426.2314,288.8184)">
          <path
             d="M 0,0 V 0 C 3.762,0 6.838,-2.713 6.838,-6.027 V -30.301 H -6.838 V -6.027 C -6.838,-2.713 -3.761,0 0,0"
             style="fill:#b2a29e;fill-opacity:1;fill-rule:evenodd;stroke:none"
             id="path4405" />
        </g>
        <g
           id="g4407"
           transform="translate(429.4658,258.5176)">
          <path
             d="m 0,0 h -10.072 v 24.273 c 0,2.765 2.142,5.113 5.036,5.813 C -2.142,29.386 0,27.038 0,24.273 Z"
             style="fill:#948681;fill-opacity:1;fill-rule:evenodd;stroke:none"
             id="path4409" />
        </g>
        <g
           id="g4411"
           transform="translate(448.6191,288.8184)">
          <path
             d="M 0,0 V 0 C 3.762,0 6.838,-2.713 6.838,-6.027 V -30.301 H -6.839 V -6.027 C -6.839,-2.713 -3.761,0 0,0"
             style="fill:#b2a29e;fill-opacity:1;fill-rule:evenodd;stroke:none"
             id="path4413" />
        </g>
        <g
           id="g4415"
           transform="translate(451.8535,258.5176)">
          <path
             d="m 0,0 h -10.073 v 24.273 c 0,2.765 2.143,5.113 5.037,5.813 C -2.143,29.386 0,27.038 0,24.273 Z"
             style="fill:#948681;fill-opacity:1;fill-rule:evenodd;stroke:none"
             id="path4417" />
        </g>
        <g
           id="g4419"
           transform="translate(471.0059,288.8184)">
          <path
             d="M 0,0 V 0 C 3.763,0 6.839,-3.077 6.839,-6.838 V -30.301 H -6.838 V -6.838 C -6.838,-3.077 -3.762,0 0,0"
             style="fill:#b2a29e;fill-opacity:1;fill-rule:evenodd;stroke:none"
             id="path4421" />
        </g>
        <g
           id="g4423"
           transform="translate(474.2402,258.5176)">
          <path
             d="m 0,0 h -10.072 v 24.273 c 0,2.765 2.142,5.113 5.036,5.813 C -2.142,29.386 0,27.038 0,24.273 Z"
             style="fill:#948681;fill-opacity:1;fill-rule:evenodd;stroke:none"
             id="path4425" />
        </g>
        <g
           id="g4427"
           transform="translate(336.6816,252.4883)">
          <path
             d="M 0,0 H 0.002 C 3.763,0 6.84,-3.076 6.84,-6.838 V -30.299 H -6.837 V -6.838 C -6.837,-3.076 -3.761,0 0,0"
             style="fill:#b2a29e;fill-opacity:1;fill-rule:evenodd;stroke:none"
             id="path4429" />
        </g>
        <g
           id="g4431"
           transform="translate(339.918,222.1895)">
          <path
             d="m 0,0 h -10.073 v 24.271 c 0,2.768 2.141,5.113 5.037,5.813 C -2.144,29.384 0,27.039 0,24.271 Z"
             style="fill:#948681;fill-opacity:1;fill-rule:evenodd;stroke:none"
             id="path4433" />
        </g>
        <g
           id="g4435"
           transform="translate(359.0703,252.4883)">
          <path
             d="M 0,0 V 0 C 3.761,0 6.839,-2.711 6.839,-6.027 V -30.299 H -6.839 V -6.027 C -6.839,-2.711 -3.762,0 0,0"
             style="fill:#b2a29e;fill-opacity:1;fill-rule:evenodd;stroke:none"
             id="path4437" />
        </g>
        <g
           id="g4439"
           transform="translate(362.3047,222.1895)">
          <path
             d="m 0,0 h -10.073 v 24.271 c 0,2.768 2.143,5.113 5.037,5.813 C -2.143,29.384 0,27.039 0,24.271 Z"
             style="fill:#948681;fill-opacity:1;fill-rule:evenodd;stroke:none"
             id="path4441" />
        </g>
        <g
           id="g4443"
           transform="translate(381.457,252.4883)">
          <path
             d="M 0,0 H 0.001 C 3.762,0 6.839,-2.711 6.839,-6.027 V -30.299 H -6.839 V -6.027 C -6.839,-2.711 -3.761,0 0,0"
             style="fill:#b2a29e;fill-opacity:1;fill-rule:evenodd;stroke:none"
             id="path4445" />
        </g>
        <g
           id="g4447"
           transform="translate(384.6924,222.1895)">
          <path
             d="m 0,0 h -10.074 v 24.271 c 0,2.768 2.142,5.113 5.036,5.813 C -2.143,29.384 0,27.039 0,24.271 Z"
             style="fill:#948681;fill-opacity:1;fill-rule:evenodd;stroke:none"
             id="path4449" />
        </g>
        <g
           id="g4451"
           transform="translate(403.8438,252.4883)">
          <path
             d="M 0,0 H 0.002 C 3.763,0 6.84,-2.711 6.84,-6.027 V -30.299 H -6.838 V -6.027 C -6.838,-2.711 -3.761,0 0,0"
             style="fill:#b2a29e;fill-opacity:1;fill-rule:evenodd;stroke:none"
             id="path4453" />
        </g>
        <g
           id="g4455"
           transform="translate(407.0781,222.1895)">
          <path
             d="m 0,0 h -10.072 v 24.271 c 0,2.768 2.142,5.113 5.036,5.813 C -2.141,29.384 0,27.039 0,24.271 Z"
             style="fill:#948681;fill-opacity:1;fill-rule:evenodd;stroke:none"
             id="path4457" />
        </g>
        <g
           id="g4459"
           transform="translate(426.2314,252.4883)">
          <path
             d="M 0,0 V 0 C 3.762,0 6.838,-2.711 6.838,-6.027 V -30.299 H -6.838 V -6.027 C -6.838,-2.711 -3.761,0 0,0"
             style="fill:#b2a29e;fill-opacity:1;fill-rule:evenodd;stroke:none"
             id="path4461" />
        </g>
        <g
           id="g4463"
           transform="translate(429.4658,222.1895)">
          <path
             d="m 0,0 h -10.072 v 24.271 c 0,2.768 2.142,5.113 5.036,5.813 C -2.142,29.384 0,27.039 0,24.271 Z"
             style="fill:#948681;fill-opacity:1;fill-rule:evenodd;stroke:none"
             id="path4465" />
        </g>
        <g
           id="g4467"
           transform="translate(448.6191,252.4883)">
          <path
             d="M 0,0 V 0 C 3.762,0 6.838,-2.711 6.838,-6.027 V -30.299 H -6.839 V -6.027 C -6.839,-2.711 -3.761,0 0,0"
             style="fill:#b2a29e;fill-opacity:1;fill-rule:evenodd;stroke:none"
             id="path4469" />
        </g>
        <g
           id="g4471"
           transform="translate(451.8535,222.1895)">
          <path
             d="m 0,0 h -10.073 v 24.271 c 0,2.768 2.143,5.113 5.037,5.813 C -2.143,29.384 0,27.039 0,24.271 Z"
             style="fill:#948681;fill-opacity:1;fill-rule:evenodd;stroke:none"
             id="path4473" />
        </g>
        <g
           id="g4475"
           transform="translate(471.0059,252.4883)">
          <path
             d="M 0,0 V 0 C 3.763,0 6.839,-3.076 6.839,-6.838 V -30.299 H -6.838 V -6.838 C -6.838,-3.076 -3.762,0 0,0"
             style="fill:#b2a29e;fill-opacity:1;fill-rule:evenodd;stroke:none"
             id="path4477" />
        </g>
        <g
           id="g4479"
           transform="translate(474.2402,222.1895)">
          <path
             d="m 0,0 h -10.072 v 24.271 c 0,2.768 2.142,5.113 5.036,5.813 C -2.142,29.384 0,27.039 0,24.271 Z"
             style="fill:#948681;fill-opacity:1;fill-rule:evenodd;stroke:none"
             id="path4481" />
        </g>
        <g
           id="g4483"
           transform="translate(299.9541,288.8184)">
          <path
             d="M 0,0 V 0 C -3.443,0 -6.262,-3.077 -6.262,-6.838 V -30.303 H 6.259 V -6.838 C 6.259,-3.077 3.442,0 0,0"
             style="fill:#b2a29e;fill-opacity:1;fill-rule:evenodd;stroke:none"
             id="path4485" />
        </g>
        <g
           id="g4487"
           transform="translate(296.9932,258.5156)">
          <path
             d="m 0,0 h 9.22 v 24.275 c 0,2.765 -1.96,5.113 -4.611,5.813 C 1.96,29.388 0,27.04 0,24.275 Z"
             style="fill:#948681;fill-opacity:1;fill-rule:evenodd;stroke:none"
             id="path4489" />
        </g>
        <g
           id="g4491"
           transform="translate(279.4609,288.8184)">
          <path
             d="M 0,0 V 0 C -3.444,0 -6.262,-2.713 -6.262,-6.027 V -30.303 H 6.259 V -6.027 C 6.259,-2.713 3.442,0 0,0"
             style="fill:#b2a29e;fill-opacity:1;fill-rule:evenodd;stroke:none"
             id="path4493" />
        </g>
        <g
           id="g4495"
           transform="translate(276.5,258.5156)">
          <path
             d="m 0,0 h 9.22 v 24.275 c 0,2.765 -1.961,5.113 -4.611,5.813 C 1.96,29.388 0,27.04 0,24.275 Z"
             style="fill:#948681;fill-opacity:1;fill-rule:evenodd;stroke:none"
             id="path4497" />
        </g>
        <g
           id="g4499"
           transform="translate(258.9678,288.8184)">
          <path
             d="M 0,0 V 0 C -3.444,0 -6.262,-2.713 -6.262,-6.027 V -30.303 H 6.258 V -6.027 C 6.258,-2.713 3.442,0 0,0"
             style="fill:#b2a29e;fill-opacity:1;fill-rule:evenodd;stroke:none"
             id="path4501" />
        </g>
        <g
           id="g4503"
           transform="translate(256.0059,258.5156)">
          <path
             d="m 0,0 h 9.22 v 24.275 c 0,2.765 -1.96,5.113 -4.61,5.813 C 1.961,29.388 0,27.04 0,24.275 Z"
             style="fill:#948681;fill-opacity:1;fill-rule:evenodd;stroke:none"
             id="path4505" />
        </g>
        <g
           id="g4507"
           transform="translate(238.4736,288.8184)">
          <path
             d="M 0,0 V 0 C -3.443,0 -6.262,-2.713 -6.262,-6.027 V -30.303 H 6.259 V -6.027 C 6.259,-2.713 3.443,0 0,0"
             style="fill:#b2a29e;fill-opacity:1;fill-rule:evenodd;stroke:none"
             id="path4509" />
        </g>
        <g
           id="g4511"
           transform="translate(235.5127,258.5156)">
          <path
             d="m 0,0 h 9.22 v 24.275 c 0,2.765 -1.96,5.113 -4.609,5.813 C 1.96,29.388 0,27.04 0,24.275 Z"
             style="fill:#948681;fill-opacity:1;fill-rule:evenodd;stroke:none"
             id="path4513" />
        </g>
        <g
           id="g4515"
           transform="translate(299.9541,252.4902)">
          <path
             d="M 0,0 V 0 C -3.443,0 -6.262,-3.078 -6.262,-6.84 V -30.301 H 6.259 V -6.84 C 6.259,-3.078 3.442,0 0,0"
             style="fill:#b2a29e;fill-opacity:1;fill-rule:evenodd;stroke:none"
             id="path4517" />
        </g>
        <g
           id="g4519"
           transform="translate(296.9932,222.1895)">
          <path
             d="m 0,0 h 9.22 v 24.271 c 0,2.768 -1.96,5.113 -4.611,5.813 C 1.96,29.384 0,27.039 0,24.271 Z"
             style="fill:#948681;fill-opacity:1;fill-rule:evenodd;stroke:none"
             id="path4521" />
        </g>
        <g
           id="g4523"
           transform="translate(279.4609,252.4902)">
          <path
             d="M 0,0 V 0 C -3.444,0 -6.262,-2.713 -6.262,-6.029 V -30.301 H 6.259 V -6.029 C 6.259,-2.713 3.442,0 0,0"
             style="fill:#b2a29e;fill-opacity:1;fill-rule:evenodd;stroke:none"
             id="path4525" />
        </g>
        <g
           id="g4527"
           transform="translate(276.5,222.1895)">
          <path
             d="m 0,0 h 9.22 v 24.271 c 0,2.768 -1.961,5.113 -4.611,5.813 C 1.96,29.384 0,27.039 0,24.271 Z"
             style="fill:#948681;fill-opacity:1;fill-rule:evenodd;stroke:none"
             id="path4529" />
        </g>
        <g
           id="g4531"
           transform="translate(258.9678,252.4902)">
          <path
             d="M 0,0 V 0 C -3.444,0 -6.262,-2.713 -6.262,-6.029 V -30.301 H 6.258 V -6.029 C 6.258,-2.713 3.442,0 0,0"
             style="fill:#b2a29e;fill-opacity:1;fill-rule:evenodd;stroke:none"
             id="path4533" />
        </g>
        <g
           id="g4535"
           transform="translate(256.0059,222.1895)">
          <path
             d="m 0,0 h 9.22 v 24.271 c 0,2.768 -1.96,5.113 -4.61,5.813 C 1.961,29.384 0,27.039 0,24.271 Z"
             style="fill:#948681;fill-opacity:1;fill-rule:evenodd;stroke:none"
             id="path4537" />
        </g>
        <g
           id="g4539"
           transform="translate(238.4736,252.4902)">
          <path
             d="M 0,0 V 0 C -3.443,0 -6.262,-2.713 -6.262,-6.029 V -30.301 H 6.259 V -6.029 C 6.259,-2.713 3.443,0 0,0"
             style="fill:#b2a29e;fill-opacity:1;fill-rule:evenodd;stroke:none"
             id="path4541" />
        </g>
        <g
           id="g4543"
           transform="translate(235.5127,222.1895)">
          <path
             d="m 0,0 h 9.22 v 24.271 c 0,2.768 -1.96,5.113 -4.609,5.813 C 1.96,29.384 0,27.039 0,24.271 Z"
             style="fill:#948681;fill-opacity:1;fill-rule:evenodd;stroke:none"
             id="path4545" />
        </g>
        <g
           id="g4547"
           transform="translate(164.9873,496.3604)">
          <path
             d="M 0,0 24.811,-54.06 49.62,-108.122 H 0 -49.619 l 24.811,54.062 z"
             style="fill:#ef3720;fill-opacity:1;fill-rule:evenodd;stroke:none"
             id="path4549" />
        </g>
        <g
           id="g4551"
           transform="translate(164.9873,496.3604)">
          <path
             d="M 0,0 11.091,-108.122 H 49.62 Z"
             style="fill:#d93122;fill-opacity:1;fill-rule:evenodd;stroke:none"
             id="path4553" />
        </g>
        <path
           d="m 126.913,381.771 h 46.205 v 6.467 h -46.205 z"
           style="fill:#e4d6d1;fill-opacity:1;fill-rule:evenodd;stroke:none"
           id="path4555" />
        <path
           d="m 173.12,381.771 h 29.941 v 6.467 H 173.12 Z"
           style="fill:#d4c0ba;fill-opacity:1;fill-rule:evenodd;stroke:none"
           id="path4557" />
        <g
           id="g4559"
           transform="translate(147.6299,370.7842)">
          <path
             d="M 0,0 V 0 C -3.443,0 -6.261,-3.078 -6.261,-6.838 V -30.301 H 6.26 V -6.838 C 6.26,-3.078 3.442,0 0,0"
             style="fill:#b2a29e;fill-opacity:1;fill-rule:evenodd;stroke:none"
             id="path4561" />
        </g>
        <g
           id="g4563"
           transform="translate(144.668,340.4834)">
          <path
             d="m 0,0 h 9.222 v 24.274 c 0,2.765 -1.962,5.113 -4.611,5.814 C 1.962,29.387 0,27.039 0,24.274 Z"
             style="fill:#948681;fill-opacity:1;fill-rule:evenodd;stroke:none"
             id="path4565" />
        </g>
        <g
           id="g4567"
           transform="translate(163.5244,307.5742)">
          <path
             d="M 0,0 V 0 C -3.442,0 -6.26,-3.076 -6.26,-6.838 V -30.299 H 6.26 V -6.838 C 6.26,-3.076 3.442,0 0,0"
             style="fill:#b2a29e;fill-opacity:1;fill-rule:evenodd;stroke:none"
             id="path4569" />
        </g>
        <g
           id="g4571"
           transform="translate(160.5625,277.2754)">
          <path
             d="m 0,0 h 9.222 v 24.272 c 0,2.765 -1.962,5.112 -4.61,5.812 C 1.962,29.384 0,27.037 0,24.272 Z"
             style="fill:#948681;fill-opacity:1;fill-rule:evenodd;stroke:none"
             id="path4573" />
        </g>
        <g
           id="g4575"
           transform="translate(142.6309,265.3848)">
          <path
             d="m 0,0 h -0.002 c -3.444,0 -6.26,-3.077 -6.26,-6.838 V -30.301 H 6.258 V -6.838 C 6.258,-3.077 3.442,0 0,0"
             style="fill:#b2a29e;fill-opacity:1;fill-rule:evenodd;stroke:none"
             id="path4577" />
        </g>
        <g
           id="g4579"
           transform="translate(139.6689,235.084)">
          <path
             d="m 0,0 h 9.22 v 24.273 c 0,2.766 -1.96,5.112 -4.61,5.815 C 1.96,29.385 0,27.039 0,24.273 Z"
             style="fill:#948681;fill-opacity:1;fill-rule:evenodd;stroke:none"
             id="path4581" />
        </g>
        <path
           d="m 225.05,293.241 h 91.671 v 5.267 H 225.05 Z"
           style="fill:#e4d6d1;fill-opacity:1;fill-rule:evenodd;stroke:none"
           id="path4583" />
        <path
           d="m 316.721,293.241 h 171.518 v 5.267 H 316.721 Z"
           style="fill:#d4c0ba;fill-opacity:1;fill-rule:evenodd;stroke:none"
           id="path4585" />
        <path
           d="m 163.61,500.205 h 2.756 v 49.262 h -2.756 z"
           style="fill:#463d3b;fill-opacity:1;fill-rule:evenodd;stroke:none"
           id="path4587" />
        <g
           id="g4589"
           transform="translate(164.9893,484.084)">
          <path
             d="M 0,0 C 6.76,0 12.275,5.516 12.275,12.276 12.275,19.039 6.76,24.555 0,24.555 -6.763,24.555 -12.277,19.039 -12.277,12.276 -12.277,5.516 -6.763,0 0,0"
             style="fill:#bf2e22;fill-opacity:1;fill-rule:evenodd;stroke:none"
             id="path4591" />
        </g>
        <g
           id="g4593"
           transform="translate(163.127,507.04)">
          <path
             d="m 0,0 c 3.775,0 6.141,-3.059 5.281,-6.835 -0.856,-3.775 -4.612,-6.835 -8.388,-6.835 -3.775,0 -6.14,3.06 -5.283,6.835 C -7.53,-3.059 -3.775,0 0,0"
             style="fill:#dc3e21;fill-opacity:1;fill-rule:evenodd;stroke:none"
             id="path4595" />
        </g>
        <g
           id="g4597"
           transform="translate(203.3828,534.0625)">
          <path
             d="m 0,0 -18.51,6.847 -18.507,6.845 V 0 -13.692 l 18.507,6.846 z"
             style="fill:#fab40a;fill-opacity:1;fill-rule:evenodd;stroke:none"
             id="path4599" />
        </g>
        <path
           d="m 297.051,576.629 h 2.759 v 49.261 h -2.759 z"
           style="fill:#463d3b;fill-opacity:1;fill-rule:evenodd;stroke:none"
           id="path4601" />
        <g
           id="g4603"
           transform="translate(298.4297,560.5078)">
          <path
             d="m 0,0 c 6.763,0 12.278,5.516 12.278,12.278 0,6.761 -5.515,12.277 -12.278,12.277 -6.762,0 -12.276,-5.516 -12.276,-12.277 C -12.276,5.516 -6.762,0 0,0"
             style="fill:#bf2e22;fill-opacity:1;fill-rule:evenodd;stroke:none"
             id="path4605" />
        </g>
        <g
           id="g4607"
           transform="translate(296.5703,583.4658)">
          <path
             d="m 0,0 c 3.774,0 6.139,-3.061 5.281,-6.837 -0.859,-3.775 -4.614,-6.835 -8.389,-6.835 -3.776,0 -6.141,3.06 -5.282,6.835 C -7.531,-3.061 -3.775,0 0,0"
             style="fill:#dc3e21;fill-opacity:1;fill-rule:evenodd;stroke:none"
             id="path4609" />
        </g>
        <g
           id="g4611"
           transform="translate(336.8242,610.4883)">
          <path
             d="m 0,0 -18.508,6.847 -18.507,6.845 V 0 -13.693 l 18.507,6.845 z"
             style="fill:#fab40a;fill-opacity:1;fill-rule:evenodd;stroke:none"
             id="path4613" />
        </g>
        <path
           d="m 509.599,500.205 h 2.756 v 49.262 h -2.756 z"
           style="fill:#463d3b;fill-opacity:1;fill-rule:evenodd;stroke:none"
           id="path4615" />
        <g
           id="g4617"
           transform="translate(510.9756,484.084)">
          <path
             d="m 0,0 c 6.763,0 12.278,5.516 12.278,12.276 0,6.763 -5.515,12.279 -12.278,12.279 -6.761,0 -12.276,-5.516 -12.276,-12.279 C -12.276,5.516 -6.761,0 0,0"
             style="fill:#bf2e22;fill-opacity:1;fill-rule:evenodd;stroke:none"
             id="path4619" />
        </g>
        <g
           id="g4621"
           transform="translate(509.1162,507.04)">
          <path
             d="m 0,0 c 3.774,0 6.141,-3.059 5.281,-6.835 -0.857,-3.775 -4.615,-6.835 -8.389,-6.835 -3.774,0 -6.14,3.06 -5.281,6.835 C -7.531,-3.059 -3.775,0 0,0"
             style="fill:#dc3e21;fill-opacity:1;fill-rule:evenodd;stroke:none"
             id="path4623" />
        </g>
        <g
           id="g4625"
           transform="translate(549.3711,534.0625)">
          <path
             d="m 0,0 -18.509,6.847 -18.508,6.845 V 0 -13.692 l 18.508,6.846 z"
             style="fill:#fab40a;fill-opacity:1;fill-rule:evenodd;stroke:none"
             id="path4627" />
        </g>
      </g>
    </g>
  </g>
</svg>
