<?xml version="1.0" encoding="UTF-8" standalone="no"?>
<!DOCTYPE svg PUBLIC "-//W3C//DTD SVG 20010904//EN" "http://www.w3.org/TR/2001/REC-SVG-20010904/DTD/svg10.dtd">
<svg xmlns="http://www.w3.org/2000/svg" width="8in" height="6in" viewBox="0 0 1600 1200" role="img" aria-labelledby="title desc">
  <title id="title">Abraham Lincoln</title>
  <desc id="desc">A minimalist illustration of the 16th President of the United States, drawn by Alvaro Montoro</desc>
  <path id="background" d="M0,0 1600,0 1600,1200 0,1200" fill="#f9c2c3" />
  <path id="shirt" fill="#f6989a" d="M 538,1208 C 538,1208 628,774 628,774 628,774 650,726 650,726 650,726 772,728 906,678 928,720 996,842 996,842 996,842 998,1234 998,1234" />
  <path id="suit" fill="#d72832" d="M 919,702 C 926,704 927,707 931,714 931,714 947,738 947,738 956,752 981,788 993,798 997,803 1007,809 1013,813 1052,835 1096,849 1138,866 1138,866 1205,895 1205,895 1205,895 1260,923 1260,923 1260,923 1312,945 1312,945 1318,948 1330,951 1335,957 1340,961 1344,971 1347,977 1347,977 1366,1024 1366,1024 1387,1081 1400,1141 1418,1200 1418,1200 753,1200 753,1200 753,1200 778,1150 778,1150 778,1150 813,1081 813,1081 813,1081 835,1038 835,1038 835,1038 864,981 864,981 864,981 888,933 888,933 888,933 853,928 853,928 853,928 830,926 830,926 830,926 798,934 798,934 798,934 752,948 752,948 752,948 705,976 705,976 705,976 685,987 685,987 685,987 670,981 670,981 670,981 636,967 636,967 636,967 644,933 644,933 644,933 648,917 648,917 648,917 659,907 659,907 659,907 626,892 626,892 620,922 620,937 621,968 621,968 621,980 621,980 621,980 621,991 621,991 621,991 626,1041 626,1041 630,1076 637,1112 643,1148 643,1148 649,1178 649,1178 649,1178 654,1200 654,1200 654,1200 196,1200 196,1200 197,1193 200,1184 202,1178 202,1178 211,1145 211,1145 211,1145 228,1072 228,1072 231,1056 237,1025 248,1014 253,1008 259,1008 267,1005 267,1005 288,995 288,995 288,995 326,976 326,976 326,976 335,970 335,970 335,970 394,941 394,941 436,920 477,897 518,874 518,874 557,851 557,851 561,849 571,843 574,840 574,840 597,807 597,807 597,807 624,766 624,766 624,766 642,740 642,740 644,741 645,743 646,746 647,748 644,753 643,756 643,756 636,775 636,775 630,794 622,827 622,848 621,858 622,857 624,867 636,858 641,851 657,844 667,840 682,838 694,838 694,838 707,839 707,839 707,839 716,839 716,839 716,839 737,841 737,841 743,842 754,838 761,836 761,836 811,820 811,820 811,820 834,812 834,812 837,811 845,813 849,814 849,814 875,820 875,820 877,821 888,825 890,824 892,823 895,819 896,818 896,818 907,799 907,799 919,779 929,757 929,735 928,720 925,714 919,702 Z" />
  <path id="face" fill="#fff" d="M 648,708 C 648,768 654,812 732,820 798,826 804,730 804,730 804,730 946,610 946,610 946,610 932,544 948,544 964,544 1002,558 1020,486 1038,414 1040,364 1016,358 992,352 938,220 938,220 938,220 860,114 860,114 860,114 600,168 600,168 600,168 546,316 546,316 546,316 534,382 558,414 532,378 512,378 508,414 504,450 532,522 540,536 548,550 572,590 606,556 630,610 632,668 632,668" />
  <path id="hair" fill="#000" d="M 751,45 C 773,45 795,49 817,56 817,56 833,61 833,61 833,61 848,67 848,67 848,67 842,54 842,54 867,54 890,63 898,90 899,95 900,100 901,106 901,114 901,117 899,126 899,128 897,135 897,137 898,140 900,140 903,139 909,139 912,138 920,138 935,137 943,137 959,140 984,147 1003,162 1019,183 1024,189 1031,201 1034,210 1034,210 1013,202 1013,202 1013,202 1018,225 1018,225 1018,225 1020,236 1020,236 1020,236 1007,217 1007,217 1007,217 1005,217 1005,217 1005,217 1004,232 1004,232 1004,232 991,228 991,228 991,238 993,239 994,252 994,252 994,264 994,264 995,276 995,290 999,303 1005,321 1020,340 1017,361 1012,359 1006,357 1002,357 989,357 977,364 972,375 965,388 971,402 972,416 974,433 974,451 972,469 972,469 971,487 971,487 971,487 958,529 958,529 957,532 955,545 955,549 956,555 961,557 966,564 972,571 976,582 978,591 978,594 979,597 979,601 974,594 966,586 960,582 961,591 967,608 968,625 968,648 951,652 942,670 940,675 941,682 941,688 940,696 939,702 937,711 933,708 922,700 918,700 914,701 912,709 911,712 907,719 897,735 891,741 886,735 883,732 876,730 876,730 876,743 876,743 874,753 867,766 859,773 855,770 853,767 849,766 835,760 820,767 810,777 810,777 795,791 795,791 791,796 784,801 778,804 760,813 740,808 723,802 723,802 711,798 711,798 705,797 704,803 699,801 696,800 691,796 690,794 683,788 677,781 671,775 671,775 649,747 649,747 634,727 626,719 618,695 618,695 613,677 613,677 612,673 613,671 612,667 609,658 598,641 592,636 592,636 589,646 589,646 585,643 584,637 583,633 582,625 583,618 587,612 591,608 595,607 598,603 604,598 605,591 603,584 600,571 592,560 586,549 579,536 572,518 568,505 564,492 560,472 560,459 560,459 560,440 560,440 559,425 555,419 548,408 545,404 544,400 541,397 537,392 534,390 530,386 530,386 522,378 522,378 522,378 513,370 513,370 515,368 519,366 522,364 531,355 523,341 522,331 520,321 520,311 521,301 521,274 533,231 546,209 546,209 529,208 529,208 534,205 539,202 543,197 556,183 553,162 563,143 569,132 576,125 587,119 587,119 601,111 601,111 604,109 607,101 610,98 615,90 620,86 628,81 644,70 670,61 690,61 690,61 698,61 698,61 709,61 716,64 718,64 718,64 732,60 732,60 740,57 758,54 765,51 765,51 751,45 751,45 Z M 887,594 C 892,599 897,610 909,606 917,603 922,588 924,580 924,580 936,529 936,529 936,529 943,501 943,501 943,501 949,465 949,465 949,465 951,438 951,438 951,423 949,424 946,416 946,416 944,404 944,404 944,404 943,394 943,394 943,394 939,348 939,348 939,348 939,340 939,340 939,340 936,310 936,310 936,310 936,301 936,301 936,301 933,276 933,276 933,276 933,268 933,268 931,249 928,237 922,220 910,189 890,165 858,158 852,157 847,156 842,156 829,155 832,158 821,168 817,173 810,178 806,181 786,194 763,199 741,199 726,198 706,193 693,187 688,186 675,178 672,178 669,178 663,181 661,182 661,182 639,191 639,191 603,209 580,237 572,277 570,286 570,299 571,310 571,310 575,345 575,345 575,345 578,370 578,370 578,370 583,409 583,409 583,409 584,420 584,420 584,426 580,431 580,446 580,446 580,460 580,460 580,476 589,499 596,514 596,514 612,545 612,545 617,555 613,557 624,572 628,576 638,588 644,583 646,582 648,578 649,577 652,587 653,597 655,609 655,609 657,625 657,625 658,629 660,642 663,645 665,646 667,645 669,645 671,644 675,645 678,646 691,649 715,655 728,655 731,656 736,655 739,654 747,651 742,649 754,649 761,648 785,648 791,649 797,651 796,654 801,657 804,659 815,659 820,659 829,658 845,653 855,651 859,650 867,648 870,645 873,642 876,635 877,631 880,623 886,600 887,594 Z M 806,391 C 806,386 807,383 809,380 821,353 855,357 880,354 880,354 898,351 898,351 898,351 890,366 890,366 903,371 916,386 919,401 902,392 885,383 866,381 866,381 856,381 856,381 856,381 839,381 839,381 825,383 817,387 806,391 Z M 607,393 C 612,386 622,380 630,376 641,370 654,365 668,365 668,365 675,365 675,365 682,366 680,365 689,367 704,371 718,379 720,397 720,397 699,395 699,395 688,394 667,397 658,400 643,406 643,410 633,416 625,421 616,423 607,424 611,416 616,412 620,404 620,401 622,397 620,395 618,393 609,393 607,393 Z" />
</svg>
